<svg id="pay" xmlns="http://www.w3.org/2000/svg" width="44.1" height="38.208" viewBox="0 0 44.1 38.208">
  <path id="Path_4216" data-name="Path 4216" d="M12.836,11.129V15.77h0C13.232,18.317,20.308,19,24.1,19c7.585,0,10.472-1.7,10.755-3.226h0V10.9h0c-.17-1.075-1.415-1.868-3.736-2.491V3.826h0C30.836,1.619,25.459.6,20.138.6S9.44,1.619,9.1,3.826h0V8.751h0C9.326,9.883,10.855,10.676,12.836,11.129ZM33.27,15.544c0,.4-2.887,1.811-9.113,1.811-6.34,0-9.51-1.359-9.623-1.811V13.053c2.038,1.019,5.717,1.472,9.4,1.472V14.3h0v.226c3.679,0,7.359-.453,9.4-1.472v2.491Zm0-4.472h0c-.113.453-3.113,1.811-9.4,1.811-4.585,0-7.472-.736-8.661-1.3a35.3,35.3,0,0,0,5.208.34c5.66,0,8.717-.962,10.019-2.038C32.874,10.449,33.27,11.072,33.27,11.072ZM10.742,4.053c.113-.453,3.113-1.811,9.4-1.811h0c6.227,0,9.283,1.359,9.4,1.811h0c-.113.453-3.17,1.811-9.4,1.811h0c-6.227,0-9.283-1.359-9.4-1.811Zm0,4.245V6.034c2.038,1.019,5.717,1.472,9.4,1.472s7.359-.453,9.4-1.472V8.525h0c0,.4-2.887,1.811-9.113,1.811-6.34,0-9.51-1.359-9.623-1.811V8.3Z" transform="translate(-3.949 -0.6)" fill="#404040"/>
  <path id="Path_4217" data-name="Path 4217" d="M43.586,40.708a2.484,2.484,0,0,0-3.509-.623l-.17.113h0a3.4,3.4,0,0,0-2.377-1.528c-1.7-.34-4.755,1.642-6.227,2.717a3.429,3.429,0,0,0-1.528-.679A124.148,124.148,0,0,0,13.585,38.84c-3.4,0-12.623,3.566-13.019,3.736A.851.851,0,0,0,0,43.369v8.887a.686.686,0,0,0,.4.679.963.963,0,0,0,.792.113l4.189-1.585a5.838,5.838,0,0,1,3.679-.113l11.774,3.623a7.472,7.472,0,0,0,2.208.34,7.206,7.206,0,0,0,3.283-.792,140.232,140.232,0,0,0,16.7-10.132A2.608,2.608,0,0,0,43.586,40.708ZM32.265,42.746c1.7-1.189,4.132-2.547,4.925-2.434.792.17,1.132.509,1.245.792-1.642,1.019-4.019,2.321-6.283,3.566A2.5,2.5,0,0,0,32.265,42.746ZM3.4,50.388l-1.642.623V43.935c.509-.17,1.075-.4,1.642-.623ZM42,43.029c-4.585,3.51-13.076,8.264-16.415,10.019a5.368,5.368,0,0,1-4.189.34L9.623,49.765a7.472,7.472,0,0,0-2.208-.34h0a7.565,7.565,0,0,0-2.264.34V42.746c3.4-1.189,6.849-2.151,8.434-2.151a120.3,120.3,0,0,1,15.849,1.811,1.783,1.783,0,0,1,1.075.679.857.857,0,0,1,.057.962,1.794,1.794,0,0,1-1.528.792h-12a.849.849,0,1,0,0,1.7h5.208a7.318,7.318,0,0,0,7.981,1.132c3.113-1.528,7.245-3.793,9.51-5.208.057-.057.113-.057.17-.113.4-.226.679-.453.962-.623l.17-.113a.748.748,0,0,1,1.132.226A.738.738,0,0,1,42,43.029ZM28.246,46.482a5.878,5.878,0,0,1-2.434,0Z" transform="translate(0 -17.104)" fill="#404040"/>
</svg>
