<svg xmlns="http://www.w3.org/2000/svg" width="32.233" height="42.796" viewBox="0 0 32.233 42.796">
  <path id="curator" d="M25.161,16.366c0,.1,0,.2-.006.3l-.028.836-.66-.515a20.972,20.972,0,0,1-3.063-3.053l-.261-.315.3-.273a16.161,16.161,0,0,0,1.665-1.733l.373-.454.315.5a8.761,8.761,0,0,1,1.36,4.709ZM21.447,7.153l.14-.35a4.074,4.074,0,0,0,.293-1.52A4.75,4.75,0,0,0,16.912.8a4.75,4.75,0,0,0-4.968,4.482,4.073,4.073,0,0,0,.293,1.52l.14.35-.331.181A10.255,10.255,0,1,0,27.12,16.366a10.3,10.3,0,0,0-5.342-9.031Zm-1.779-.69-.382-.092a10.161,10.161,0,0,0-4.748,0l-.382.092-.123-.373a2.583,2.583,0,0,1-.131-.808,2.9,2.9,0,0,1,3.009-2.777,2.9,2.9,0,0,1,3.009,2.777,2.583,2.583,0,0,1-.131.808Zm2.512,3.3-.244.333c-1.268,1.733-4.97,5.7-12.79,6.749l-.479.064,0-.484V16.4c0-.009,0-.022,0-.035A8.423,8.423,0,0,1,16.912,7.8a8.01,8.01,0,0,1,4.942,1.712ZM8.932,18.6l.5-.068a23.317,23.317,0,0,0,9.916-3.56l.317-.211.245.292A19.987,19.987,0,0,0,24.372,19.1l.3.187-.132.332a8.268,8.268,0,0,1-7.632,5.32,8.3,8.3,0,0,1-7.824-5.854ZM20.774,30.351l-3.886,5.9-3.843-5.9Zm10.3,11.539H2.759V36.737c0-3.559,3.168-6.386,6.976-6.386h1.06l6.085,9.338,6.152-9.338H24.1c3.808,0,6.975,2.827,6.975,6.386ZM24.1,28.645H9.734C4.77,28.645.8,32.312.8,36.737V43.6H33.033V36.737C33.033,32.312,29.063,28.645,24.1,28.645Z" transform="translate(-0.8 -0.8)" fill="#404040" fill-rule="evenodd"/>
</svg>
