<svg id="art" xmlns="http://www.w3.org/2000/svg" width="38.879" height="36.783" viewBox="0 0 38.879 36.783">
  <path id="Path_4213" data-name="Path 4213" d="M39.48,10.033a.8.8,0,0,0-.549-.25h-1.9L22.411,3.1v-.15a2.063,2.063,0,0,0-1.1-1.847,2.072,2.072,0,0,0-2.146,0,2.228,2.228,0,0,0-1.1,1.847V3.1L3.545,9.784h-1.9a.768.768,0,0,0-.749.749V36.785a.8.8,0,0,0,.25.549.8.8,0,0,0,.549.25H38.981a.859.859,0,0,0,.8-.8v-26.2A5.443,5.443,0,0,0,39.48,10.033ZM7.238,9.784l11.529-5.29a2.171,2.171,0,0,0,2.995,0l11.529,5.29ZM20.714,3.4a.559.559,0,0,1-.649.15.584.584,0,0,1-.4-.549.607.607,0,0,1,.6-.6.584.584,0,0,1,.549.4A.42.42,0,0,1,20.714,3.4Zm17.418,7.936V36.036H2.4V11.331Z" transform="translate(-0.9 -0.8)" fill="#404040"/>
  <path id="Path_4214" data-name="Path 4214" d="M7.149,46.56H38.891a.859.859,0,0,0,.8-.8V25.1a.859.859,0,0,0-.8-.8H7.149a.768.768,0,0,0-.749.749V45.761a.8.8,0,0,0,.25.549A.507.507,0,0,0,7.149,46.56Zm.8-4.542,10.281-8.984,7.736,6.738-1.348,1.348a.777.777,0,1,0,1.1,1.1l6.338-6.338,6.089,6.089v3.044H7.947Zm23.507-7.786-4.442,4.442-8.285-7.237a.758.758,0,0,0-1,0L7.947,39.972V25.847H38.192V39.822l-5.64-5.59a.729.729,0,0,0-1.1,0Z" transform="translate(-3.655 -12.571)" fill="#404040"/>
  <path id="Path_4215" data-name="Path 4215" d="M45.145,32.7a2.845,2.845,0,0,0,0,5.69,2.715,2.715,0,0,0,2-.848,2.773,2.773,0,0,0,0-3.993A2.715,2.715,0,0,0,45.145,32.7Zm1.3,2.795a1.169,1.169,0,0,1-.4.9,1.067,1.067,0,0,1-.9.449,1.169,1.169,0,0,1-.9-.4,1.342,1.342,0,0,1-.4-.9,1.25,1.25,0,0,1,.4-.9,1.342,1.342,0,0,1,.9-.4,1.25,1.25,0,0,1,.9.4A.993.993,0,0,1,46.442,35.495Z" transform="translate(-21.638 -16.779)" fill="#404040"/>
</svg>
