<svg xmlns="http://www.w3.org/2000/svg" xmlns:xlink="http://www.w3.org/1999/xlink"  viewBox="0 0 75 75">
  <defs>
    <filter id="Base" x="0" y="0" filterUnits="userSpaceOnUse">
      <feOffset dy="2" input="SourceAlpha"/>
      <feGaussianBlur stdDeviation="2.5" result="blur"/>
      <feFlood flood-color="#0d111a" flood-opacity="0.031"/>
      <feComposite operator="in" in2="blur"/>
      <feComposite in="SourceGraphic"/>
    </filter>
  </defs>
  <g id="Group_2485" data-name="Group 2485" transform="translate(-1583.5 -141.5)">
    <g transform="matrix(1, 0, 0, 1, 1583.5, 141.5)" filter="url(#Base)">
      <rect id="Base-2" data-name="Base" width="60" height="60" rx="30" transform="translate(7.5 5.5)" fill="#fff"/>
    </g>
    <g id="Icon" transform="translate(1611 167)">
      <path id="Icon-2" data-name="Icon" d="M10,19.994a9.942,9.942,0,0,1-5.5-1.652L.658,19.571,1.9,15.857A9.891,9.891,0,0,1,0,10,10.009,10.009,0,0,1,10,0H10a10,10,0,1,1,0,19.994ZM6.236,4.573a1.451,1.451,0,0,0-1.023.358l-.026.027a3.2,3.2,0,0,0-1,2.407,5.534,5.534,0,0,0,1.173,3l.014.02c.011.014.031.043.06.086a11.848,11.848,0,0,0,4.918,4.31,8.518,8.518,0,0,0,2.929.819,2.6,2.6,0,0,0,.573-.067,2.82,2.82,0,0,0,1.963-1.41,2.5,2.5,0,0,0,.171-1.387c-.057-.1-.191-.164-.394-.261l-.164-.08c-.33-.165-1.723-.853-1.993-.947a.716.716,0,0,0-.252-.051.559.559,0,0,0-.464.268l-.123.172-.005.007a9.457,9.457,0,0,1-.654.855.564.564,0,0,1-.418.17.754.754,0,0,1-.286-.058l-.089-.036a7.372,7.372,0,0,1-2.257-1.41A8.771,8.771,0,0,1,7.27,9.345a.466.466,0,0,1,.11-.615l.007-.008c.085-.1.169-.194.25-.28.06-.064.123-.13.185-.2L7.853,8.2a1.646,1.646,0,0,0,.292-.423A.6.6,0,0,0,8.1,7.24c-.052-.109-.39-.927-.661-1.585l-.239-.578c-.19-.457-.332-.481-.635-.493C6.449,4.577,6.339,4.573,6.236,4.573Z" fill="#959595"/>
    </g>
  </g>
</svg>
