<svg xmlns="http://www.w3.org/2000/svg" xmlns:xlink="http://www.w3.org/1999/xlink"  viewBox="0 0 75 75">
  <defs>
    <filter id="Base" x="0" y="0" filterUnits="userSpaceOnUse">
      <feOffset dy="2" input="SourceAlpha"/>
      <feGaussianBlur stdDeviation="2.5" result="blur"/>
      <feFlood flood-color="#0d111a" flood-opacity="0.031"/>
      <feComposite operator="in" in2="blur"/>
      <feComposite in="SourceGraphic"/>
    </filter>
  </defs>
  <g id="Group_2483" data-name="Group 2483" transform="translate(-1423.5 -141.5)">
    <g transform="matrix(1, 0, 0, 1, 1423.5, 141.5)" filter="url(#Base)">
      <rect id="Base-2" data-name="Base" width="60" height="60" rx="30" transform="translate(7.5 5.5)" fill="#fff"/>
    </g>
    <g id="Icon" transform="translate(1451 169)">
      <path id="Icon-2" data-name="Icon" d="M18,16H2a2,2,0,0,1-2-2L.01,2A2,2,0,0,1,2,0H18a2,2,0,0,1,2,2V14A2,2,0,0,1,18,16ZM2.849,2.68A.849.849,0,0,0,2.4,4.25L9.47,8.67a1.009,1.009,0,0,0,1.06,0L17.6,4.25a.849.849,0,1,0-.9-1.44L10,7,3.3,2.81A.863.863,0,0,0,2.849,2.68Z" fill="#959595"/>
    </g>
  </g>
</svg>
