<svg xmlns="http://www.w3.org/2000/svg" width="50" height="50" viewBox="0 0 50 50">
  <g id="Group_2135" data-name="Group 2135" transform="translate(0 0)">
    <g id="Group_2132" data-name="Group 2132" transform="translate(0 0)">
      <g id="Group_2148" data-name="Group 2148">
        <path id="Path_4218" data-name="Path 4218" d="M49,18.031A24.993,24.993,0,1,1,18.031,1,24.993,24.993,0,0,1,49,18.031" transform="translate(0 0)" fill="#ffe600"/>
      </g>
    </g>
    <g id="Group_2134" data-name="Group 2134" transform="translate(2.175 2.008)">
      <g id="Group_2150" data-name="Group 2150" transform="translate(9.989 11.325)">
        <path id="Path_4219" data-name="Path 4219" d="M27.411,16.055c-7.317,0-13.249,4.684-13.249,10.465,0,3.718,2.458,6.974,6.149,8.837l-1.249,4.661a.387.387,0,0,0,.095.4.38.38,0,0,0,.271.111.386.386,0,0,0,.23-.088l5.37-3.626a16.8,16.8,0,0,0,2.385.174c7.316,0,13.251-4.685,13.251-10.466S34.728,16.055,27.411,16.055" transform="translate(-14.162 -16.055)" fill="#392020"/>
      </g>
    </g>
  </g>
</svg>
