<svg id="Group_2148" data-name="Group 2148" xmlns="http://www.w3.org/2000/svg" viewBox="0 0 18 12">
  <g id="Group_2111" data-name="Group 2111">
    <path id="Path" d="M1,2H5A1,1,0,0,0,5,0H1A1,1,0,0,0,1,2Z" transform="translate(0 10)" fill="#959595"/>
    <path id="Path-2" data-name="Path" d="M0,1A1,1,0,0,0,1,2H17a1,1,0,0,0,0-2H1A1,1,0,0,0,0,1Z" fill="#959595"/>
    <path id="Path-3" data-name="Path" d="M1,2H11a1,1,0,0,0,0-2H1A1,1,0,0,0,1,2Z" transform="translate(0 5)" fill="#959595"/>
  </g>
  <path id="Path-4" data-name="Path" d="M1,2H5A1,1,0,0,0,5,0H1A1,1,0,0,0,1,2Z" transform="translate(0 10)" fill="#959595"/>
  <path id="Path-5" data-name="Path" d="M0,1A1,1,0,0,0,1,2H17a1,1,0,0,0,0-2H1A1,1,0,0,0,0,1Z" fill="#959595"/>
  <path id="Path-6" data-name="Path" d="M1,2H11a1,1,0,0,0,0-2H1A1,1,0,0,0,1,2Z" transform="translate(0 5)" fill="#959595"/>
</svg>
