<svg xmlns="http://www.w3.org/2000/svg" width="37.778" height="34" viewBox="0 0 37.778 34">
  <path id="webcam-woman" d="M36,3H5.778A3.782,3.782,0,0,0,2,6.778V33.222A3.782,3.782,0,0,0,5.778,37H36a3.782,3.782,0,0,0,3.778-3.778V6.778A3.782,3.782,0,0,0,36,3ZM29.837,22.386a5.51,5.51,0,0,1-1.386-3.209.955.955,0,0,1,1.058-1.058,5.51,5.51,0,0,1,3.209,1.386A5.51,5.51,0,0,1,34.1,22.714a.955.955,0,0,1-1.058,1.058A5.505,5.505,0,0,1,29.837,22.386Zm2.386,6.978v.081a1.89,1.89,0,0,1-1.889,1.889H11.444a1.89,1.89,0,0,1-1.889-1.889v-.081c0-3.3,5.142-5.585,11.333-5.585S32.222,26.065,32.222,29.363Zm-5.667-15.03a5.667,5.667,0,0,1-11.333,0,5.667,5.667,0,0,1,11.333,0Z" transform="translate(-2 -3)"/>
</svg>
