<svg xmlns="http://www.w3.org/2000/svg" viewBox="0 0 24.33 26.81">
  <g id="Group_2187" data-name="Group 2187" transform="translate(0 0)">
    <g id="Group_2188" data-name="Group 2188" transform="translate(0 0)">
      <path id="Path_4264" data-name="Path 4264" d="M18.782,21.71a.481.481,0,0,0-.48.48v2.539a1.122,1.122,0,0,1-1.121,1.121H2.081A1.122,1.122,0,0,1,.961,24.729V2.081A1.122,1.122,0,0,1,2.081.961h15.1A1.122,1.122,0,0,1,18.3,2.081V4.62a.48.48,0,1,0,.961,0V2.081A2.083,2.083,0,0,0,17.181,0H2.081A2.083,2.083,0,0,0,0,2.081V24.729A2.083,2.083,0,0,0,2.081,26.81h15.1a2.083,2.083,0,0,0,2.081-2.081V22.19a.48.48,0,0,0-.48-.48" transform="translate(0 0)"/>
      <path id="Path_4265" data-name="Path 4265" d="M26.7,15.37h0a.363.363,0,0,0-.01-.051.409.409,0,0,0-.133-.29L21.51,9.982a.481.481,0,0,0-.68.68l4.227,4.227h-12.7a.48.48,0,1,0,0,.961h12.7l-4.229,4.227a.481.481,0,1,0,.68.68l5.048-5.047a.454.454,0,0,0,.061-.09.555.555,0,0,0,.042-.064.475.475,0,0,0,.038-.186" transform="translate(-2.369 -1.964)"/>
    </g>
  </g>
</svg>
