<svg xmlns="http://www.w3.org/2000/svg" xmlns:xlink="http://www.w3.org/1999/xlink" width="25" height="50" viewBox="0 0 25 50">
  <defs>
    <clipPath id="clip-path">
      <rect id="Rectangle_88" data-name="Rectangle 88" width="25" height="50"/>
    </clipPath>
  </defs>
  <g id="Group_2111" data-name="Group 2111" transform="translate(29 50) rotate(180)">
    <g id="Group_70" data-name="Group 70" transform="translate(29 50) rotate(180)" clip-path="url(#clip-path)">
      <path id="Path_35" data-name="Path 35" d="M23.267,0a1.672,1.672,0,0,1,1.224.539A1.889,1.889,0,0,1,25,1.842a1.888,1.888,0,0,1-.509,1.3L4.183,24.73,24.491,46.318a1.922,1.922,0,0,1,0,2.605,1.659,1.659,0,0,1-2.448,0L.507,26.033a1.924,1.924,0,0,1,0-2.6L22.041.539A1.678,1.678,0,0,1,23.267,0" transform="translate(0 0.538)"/>
    </g>
  </g>
</svg>
