<svg xmlns="http://www.w3.org/2000/svg" width="56.667" height="51" viewBox="0 0 56.667 51">
  <path id="webcam-woman" d="M53,3H7.667A5.672,5.672,0,0,0,2,8.667V48.333A5.672,5.672,0,0,0,7.667,54H53a5.672,5.672,0,0,0,5.667-5.667V8.667A5.672,5.672,0,0,0,53,3ZM43.755,32.078a8.265,8.265,0,0,1-2.08-4.814,1.433,1.433,0,0,1,1.587-1.587,8.265,8.265,0,0,1,4.814,2.08,8.265,8.265,0,0,1,2.08,4.814,1.433,1.433,0,0,1-1.587,1.587A8.258,8.258,0,0,1,43.755,32.078Zm3.578,10.466v.122A2.834,2.834,0,0,1,44.5,45.5H16.167a2.834,2.834,0,0,1-2.833-2.833v-.122c0-4.947,7.712-8.378,17-8.378S47.333,37.6,47.333,42.545ZM38.833,20a8.348,8.348,0,0,1-8.5,8.5,8.348,8.348,0,0,1-8.5-8.5,8.348,8.348,0,0,1,8.5-8.5A8.348,8.348,0,0,1,38.833,20Z" transform="translate(-2 -3)" fill="#dcdde6"/>
</svg>
