<svg xmlns="http://www.w3.org/2000/svg" width="42.5" height="34" viewBox="0 0 42.5 34">
  <path id="image" d="M40.25,4h-34A4.249,4.249,0,0,0,2,8.25v25.5A4.249,4.249,0,0,0,6.25,38h34a4.249,4.249,0,0,0,4.25-4.25V8.25A4.249,4.249,0,0,0,40.25,4ZM19,12.5a2.125,2.125,0,1,1-2.125,2.125A2.126,2.126,0,0,1,19,12.5ZM36,31.625H10.547a1.062,1.062,0,0,1-.837-1.715L15,23.106a1.062,1.062,0,0,1,1.655-.025l4.469,5.378,6.583-8.483a1.062,1.062,0,0,1,1.689.015l7.452,9.934A1.063,1.063,0,0,1,36,31.625Z" transform="translate(-2 -4)"/>
</svg>
