<svg id="Group_2475" data-name="Group 2475" xmlns="http://www.w3.org/2000/svg" xmlns:xlink="http://www.w3.org/1999/xlink" viewBox="0 0 48.667 48.667">
  <defs>
    <clipPath id="clip-path">
      <rect id="Rectangle_955" data-name="Rectangle 955" width="48.667" height="48.667" fill="none"/>
    </clipPath>
  </defs>
  <g id="Group_2091" data-name="Group 2091" clip-path="url(#clip-path)">
    <path id="Path_4232" data-name="Path 4232" d="M44.744,256.258c-.272-.079-.55-.142-.814-.241a4.164,4.164,0,0,1-2.8-3.262c-.248-1.257-.461-2.521-.665-3.786a.527.527,0,0,1,.194-.437c2.242-1.307,4.494-2.6,6.744-3.889a1.518,1.518,0,0,1,.192-.068v.475q0,2.471,0,4.942a1.436,1.436,0,1,0,2.851-.013c0-2.249.007-4.5-.007-6.748a.633.633,0,0,1,.357-.634c2.611-1.554,5.212-3.125,7.822-4.68a1.271,1.271,0,0,1,.615-.186q10.717-.014,21.433-.007c.108,0,.216.017.354.028-.253,1.806-.5,3.59-.754,5.374-.43,3.024-.882,6.045-1.292,9.071a4.333,4.333,0,0,1-3.593,4,.6.6,0,0,0-.125.064Zm16.349-9.884c0-1.234.005-2.467,0-3.7a1.429,1.429,0,1,0-2.849.02q-.006,3.677,0,7.353a1.431,1.431,0,1,0,2.849-.02c0-1.218,0-2.435,0-3.653m7.794-.051c0,1.234,0,2.467,0,3.7a1.431,1.431,0,1,0,2.849.028q.007-3.677,0-7.354a1.431,1.431,0,1,0-2.849.02c0,1.2,0,2.4,0,3.606" transform="translate(-35.334 -207.592)"/>
    <path id="Path_4233" data-name="Path 4233" d="M82.645,0c1.008.186,2.034.307,3.022.568A15.905,15.905,0,0,1,97.3,13.719c.1.688.125,1.386.168,2.08.021.345,0,.693,0,1.08h-7.7V13.231c0-1.9,0-1.9-1.675-2.836-1.88-1.046-3.768-2.077-5.637-3.141a1.76,1.76,0,0,0-1.915,0C78.43,8.463,76.3,9.641,74.161,10.81a1.616,1.616,0,0,0-.933,1.567c.019,1.488.006,2.977.006,4.5H65.469a30.474,30.474,0,0,1,.3-3.536A15.7,15.7,0,0,1,77.388.56,27.455,27.455,0,0,1,80.363,0Z" transform="translate(-57.171)"/>
    <path id="Path_4234" data-name="Path 4234" d="M243.19,162.353a1.832,1.832,0,0,1-1.913,1.059c-5.982-.025-11.965-.013-17.947-.013h-.571a6.06,6.06,0,0,0,1.2-7.486c.185-.008.349-.022.513-.022,5.6,0,11.205.012,16.808-.014a1.828,1.828,0,0,1,1.912,1.059Z" transform="translate(-194.523 -136.119)"/>
    <path id="Path_4235" data-name="Path 4235" d="M0,156.934a1.831,1.831,0,0,1,1.913-1.059c5.111.028,10.222.013,15.334.013h.631c-.2.139-.3.221-.411.288q-5.854,3.517-11.713,7.024a1.491,1.491,0,0,1-.707.188c-1.044.02-2.091-.03-3.132.02A1.784,1.784,0,0,1,0,162.352Z" transform="translate(0 -136.118)"/>
    <path id="Path_4236" data-name="Path 4236" d="M332.215,6.464c-.615.666-1.225,1.338-1.849,2-.3.321-.624.629-.957.919a1.413,1.413,0,0,1-2.075-.078q-1.067-1.045-2.113-2.111a1.426,1.426,0,0,1,1.565-2.365c.043.017.088.028.2.063V3.236c0-.442.032-.888-.007-1.327A1.732,1.732,0,0,1,328.032,0h.76a1.775,1.775,0,0,1,1.057,1.907c-.05,1-.012,2-.012,3.075a1.4,1.4,0,0,1,1.486-.193,5.211,5.211,0,0,1,.89.914Z" transform="translate(-283.548)"/>
    <path id="Path_4237" data-name="Path 4237" d="M4.182,0A1.777,1.777,0,0,1,5.239,1.916c-.05.977-.011,1.959-.011,2.96a5.685,5.685,0,0,1,.664-.2A1.419,1.419,0,0,1,7.3,5.357a1.342,1.342,0,0,1-.139,1.635c-.793.841-1.608,1.663-2.453,2.451a1.309,1.309,0,0,1-1.82,0c-.858-.774-1.682-1.586-2.507-2.4A3.294,3.294,0,0,1,0,6.464V5.7c.241-.4.457-.88.972-.944a8.386,8.386,0,0,1,1.4.054c0-.919.039-1.914-.012-2.906A1.772,1.772,0,0,1,3.422,0Z"/>
    <path id="Path_4238" data-name="Path 4238" d="M10.793,174.3a3.031,3.031,0,0,1-1.6-5.658c3.018-1.826,6.047-3.634,9.071-5.45q5.533-3.322,11.067-6.644a3.039,3.039,0,1,1,3.234,5.144c-1.778,1.1-3.576,2.157-5.366,3.232q-7.262,4.36-14.524,8.722a3.433,3.433,0,0,1-1.884.655" transform="translate(-6.696 -136.26)"/>
    <path id="Path_4239" data-name="Path 4239" d="M160.069,86.4H149.235c0-1.252-.006-2.482.01-3.712a.466.466,0,0,1,.233-.306q2.461-1.381,4.937-2.735a.569.569,0,0,1,.466-.01q2.479,1.349,4.936,2.736a.509.509,0,0,1,.241.351c.018,1.215.011,2.431.011,3.677" transform="translate(-130.318 -69.503)"/>
  </g>
</svg>
