<svg xmlns="http://www.w3.org/2000/svg" viewBox="0 0 28.667 25.032">
  <g id="Heart" transform="translate(0)">
    <g id="Group_2241" data-name="Group 2241" transform="translate(19.075 -0.002)">
      <path id="Heart-2" data-name="Heart" d="M20.836,2.5h.006A8.442,8.442,0,0,1,28.92,8.776l0,.014a8.953,8.953,0,0,1-.2,4.917,18.311,18.311,0,0,1-3.59,6.389,29.807,29.807,0,0,1-10,7.371.667.667,0,0,1-.578,0,29.793,29.793,0,0,1-10-7.373A18.3,18.3,0,0,1,.961,13.7a8.952,8.952,0,0,1-.2-4.917l0-.015A8.443,8.443,0,0,1,8.837,2.5h.01A8.225,8.225,0,0,1,14.84,5.124,8.225,8.225,0,0,1,20.833,2.5Zm-6,4.323a.667.667,0,0,1-.53-.262A6.907,6.907,0,0,0,8.842,3.834,7.106,7.106,0,0,0,2.051,9.1a7.62,7.62,0,0,0,.178,4.184l0,.014c1.1,3.584,4.191,8.7,12.606,12.827C23.252,22,26.34,16.888,27.446,13.306l0-.013a7.621,7.621,0,0,0,.178-4.184,7.1,7.1,0,0,0-6.791-5.275,6.908,6.908,0,0,0-5.468,2.728A.667.667,0,0,1,14.84,6.823Z" transform="translate(-19.581 -2.498)" fill="#959595"/>
    </g>
  </g>
</svg>
