<svg xmlns="http://www.w3.org/2000/svg" viewBox="0 0 21 20.989">
  <path id="Path_4275" data-name="Path 4275" d="M29.37,11.254a3.93,3.93,0,0,0-1.2-2.821,3.863,3.863,0,0,0-2.821-1.2,2.8,2.8,0,0,0-2.052.922L13.273,20.238a3.448,3.448,0,0,0-.4-.039,3.506,3.506,0,0,0-2.486,1.029C9.015,22.6,8.371,28.216,8.371,28.216s5.616-.64,6.99-2.013a3.5,3.5,0,0,0,.993-2.884L28.481,13.276A2.788,2.788,0,0,0,29.37,11.254Zm-15.4,13.539a10.082,10.082,0,0,1-3.21,1.033,10.184,10.184,0,0,1,1.026-3.2,1.538,1.538,0,0,1,2.184,2.166Zm1.39-3.564c-.064-.063-.137-.108-.2-.166l2.922-3.524.974.974-3.526,2.92C15.471,21.366,15.425,21.293,15.362,21.23Zm11.822-9.447-6.6,5.463-1.236-1.237,5.438-6.56a.832.832,0,0,1,.6-.243,2.149,2.149,0,0,1,2,2A.828.828,0,0,1,27.184,11.783Z" transform="translate(-8.371 -7.227)" fill="#959595"/>
</svg>
