<svg id="Group_2476" data-name="Group 2476" xmlns="http://www.w3.org/2000/svg" xmlns:xlink="http://www.w3.org/1999/xlink" viewBox="0 0 50.537 50.537">
  <defs>
    <clipPath id="clip-path">
      <rect id="Rectangle_953" data-name="Rectangle 953" width="50.537" height="50.537" fill="none"/>
    </clipPath>
  </defs>
  <g id="Group_2087" data-name="Group 2087" clip-path="url(#clip-path)">
    <path id="Path_4226" data-name="Path 4226" d="M0,35.238V9.081A2.2,2.2,0,0,1,1.1,8.02q6.685-2.9,13.358-5.84C16.088,1.462,17.715.727,19.346,0h.79a1.622,1.622,0,0,0,.2.124q8.927,3.932,17.859,7.854a1.778,1.778,0,0,1,1.2,1.825c-.02,4.54-.009,9.081-.009,13.621v.6c-2.047-.235-3.753.6-5.478,1.436-1.036.5-2.154.838-3.209,1.238V19.641c.357,0,.637.01.915,0a1.487,1.487,0,0,0,1.453-1.453,1.47,1.47,0,0,0-1.454-1.5q-2.393-.029-4.787,0a1.465,1.465,0,0,0-1.454,1.5,1.491,1.491,0,0,0,1.451,1.454c.291.013.583,0,.917,0v.583c0,1.76.031,3.521-.012,5.28-.025,1.032.242,1.805,1.4,2.068a8.086,8.086,0,0,0-2.655,3.618q-.807,2.112-1.726,4.181a7.385,7.385,0,0,0-.67,4.317c.143.831.412,1.639.636,2.5-1.328.577-2.718,1.164-4.091,1.787a2,2,0,0,1-1.747,0q-8.742-3.8-17.5-7.564A2.387,2.387,0,0,1,0,35.238M11.153,20.668c-.177-.271-.275-.414-.365-.562-.552-.914-1.087-1.839-1.657-2.741a1.471,1.471,0,0,0-2.708.751q-.021,4,0,7.991a1.46,1.46,0,0,0,1.468,1.431,1.475,1.475,0,0,0,1.477-1.424c.026-.673.006-1.348.009-2.022,0-.134.018-.269.037-.518.661,1.1,1.256,2.1,1.859,3.1a1.494,1.494,0,0,0,2.839-.79q0-3.773,0-7.547a1.489,1.489,0,1,0-2.96-.007c0,.731,0,1.462,0,2.339m8.5-1.026c.553,0,1.06,0,1.567,0a1.482,1.482,0,1,0,0-2.958c-.97-.008-1.941-.006-2.911,0a1.493,1.493,0,0,0-1.627,1.626q-.005,3.8,0,7.6a1.486,1.486,0,1,0,2.96.008c0-.5,0-1.006,0-1.535.527,0,.986,0,1.444,0a1.495,1.495,0,1,0,.023-2.961c-.485,0-.97,0-1.455,0Z"/>
    <path id="Path_4227" data-name="Path 4227" d="M215.95,228.4c-1.431-.607-2.859-1.222-4.295-1.818-.576-.239-1.171-.431-1.751-.659a4.687,4.687,0,0,1-2.772-2.828c-.587-1.53-1.234-3.037-1.888-4.541a4.8,4.8,0,0,1,.024-4.052c.644-1.453,1.266-2.919,1.828-4.405a4.829,4.829,0,0,1,2.951-2.967c1.5-.572,2.981-1.2,4.449-1.851a4.8,4.8,0,0,1,4.051-.017c1.487.648,2.98,1.288,4.5,1.864a4.828,4.828,0,0,1,2.874,2.795c.662,1.59,1.365,3.162,2.04,4.747.166.389.288.8.43,1.2v1.184c-.2.57-.369,1.15-.6,1.706-.619,1.5-1.273,2.985-1.893,4.485a4.561,4.561,0,0,1-2.542,2.6c-.53.219-1.079.392-1.609.612-1.54.641-3.074,1.295-4.61,1.943Zm-.237-11.528c-.484-.511-.893-.986-1.348-1.411a1.472,1.472,0,0,0-2.1,2.059c.751.8,1.522,1.594,2.331,2.338.83.762,1.382.8,2.2.035,1.394-1.3,2.732-2.656,4.059-4.023a1.313,1.313,0,0,0,.014-1.764,1.435,1.435,0,0,0-2.266-.132c-.947.931-1.878,1.878-2.9,2.9" transform="translate(-177.85 -177.862)"/>
  </g>
</svg>
