<svg id="Group_2479" data-name="Group 2479" xmlns="http://www.w3.org/2000/svg" xmlns:xlink="http://www.w3.org/1999/xlink" viewBox="0 0 48.952 48.952">
  <defs>
    <clipPath id="clip-path">
      <rect id="Rectangle_954" data-name="Rectangle 954" width="48.952" height="48.952" fill="none"/>
    </clipPath>
  </defs>
  <g id="Group_2089" data-name="Group 2089" clip-path="url(#clip-path)">
    <path id="Path_4228" data-name="Path 4228" d="M103.427,279.885A1.713,1.713,0,0,1,102.37,278c.036-.407.006-.82.006-1.275h-.606c-4.381,0-8.763.022-13.144-.006a19.713,19.713,0,0,1-14.481-6.174c-.54-.552-.978-1.128-.622-1.943.344-.787,1.035-.872,1.8-.871q13.216.016,26.432.007h.623c0-.521.005-1.009,0-1.5a1.427,1.427,0,0,1,.8-1.406,1.405,1.405,0,0,1,1.6.218c2.537,2,5.078,4,7.6,6.023a4.144,4.144,0,0,1,.6.774v.765a10.482,10.482,0,0,1-1.006,1.1c-1.256,1.045-2.537,2.062-3.82,3.075-1.316,1.039-2.646,2.06-3.97,3.089Z" transform="translate(-64.036 -230.933)"/>
    <path id="Path_4229" data-name="Path 4229" d="M9.561,0a1.712,1.712,0,0,1,1.058,1.88c-.036.407-.006.82-.006,1.275h.606c4.381,0,8.763-.02,13.144,0a19.653,19.653,0,0,1,14.51,6.21,3.933,3.933,0,0,1,.467.542,1.426,1.426,0,0,1-1.05,2.22,5.61,5.61,0,0,1-.573.009h-27.1c0,.52,0,1.008,0,1.5a1.431,1.431,0,0,1-.8,1.408,1.4,1.4,0,0,1-1.6-.219Q4.4,11.82.6,8.8A4.21,4.21,0,0,1,0,8.031V7.266A9.974,9.974,0,0,1,.971,6.2C2.178,5.19,3.409,4.214,4.642,3.24,6.021,2.152,7.411,1.08,8.8,0Z"/>
    <path id="Path_4230" data-name="Path 4230" d="M99,136.608h-.5q-11.039,0-22.077.009a.838.838,0,0,1-.784-.394,15.016,15.016,0,0,1-1.575-15.506.739.739,0,0,1,.274-.365,4.513,4.513,0,0,0,2.319-2.674h.5q11.039,0,22.077-.009a.837.837,0,0,1,.784.393,15.028,15.028,0,0,1,1.575,15.507.74.74,0,0,1-.274.366A4.519,4.519,0,0,0,99,136.608m-17.193-9.477c0,.732.006,1.465,0,2.2a1.514,1.514,0,0,0,.728,1.362q2.207,1.464,4.407,2.939a1.475,1.475,0,0,0,1.781,0q2.2-1.471,4.407-2.939a1.559,1.559,0,0,0,.73-1.412q-.017-2.149,0-4.3a1.525,1.525,0,0,0-.71-1.373q-2.225-1.481-4.447-2.965a1.448,1.448,0,0,0-1.739,0q-2.222,1.484-4.447,2.965a1.484,1.484,0,0,0-.708,1.324c.005.732,0,1.465,0,2.2" transform="translate(-63.356 -102.667)"/>
    <path id="Path_4231" data-name="Path 4231" d="M173.485,168.178c.365,1.011-.282,1.653-1.255,2.169a15.283,15.283,0,0,0-1.63,1.078.4.4,0,0,1-.545-.006c-.865-.593-1.75-1.158-2.61-1.76a.709.709,0,0,1-.259-.491q-.041-1.192,0-2.385a.711.711,0,0,1,.246-.5q1.309-.916,2.659-1.77a.551.551,0,0,1,.486,0q1.348.856,2.661,1.767a.683.683,0,0,1,.235.46c.033.411.011.826.011,1.434" transform="translate(-145.854 -143.491)"/>
  </g>
</svg>
