<svg id="Heart" xmlns="http://www.w3.org/2000/svg"  viewBox="0 0 21.493 18.768">
  <g id="Group_2241" data-name="Group 2241" transform="translate(16.567 -0.002)">
    <path id="Heart-2" data-name="Heart" d="M15.748,2.5h0a6.329,6.329,0,0,1,6.056,4.705l0,.01a6.713,6.713,0,0,1-.153,3.686,13.728,13.728,0,0,1-2.691,4.79,22.347,22.347,0,0,1-7.5,5.526.5.5,0,0,1-.433,0,22.336,22.336,0,0,1-7.5-5.527,13.722,13.722,0,0,1-2.691-4.8A6.712,6.712,0,0,1,.694,7.209L.7,7.2A6.33,6.33,0,0,1,6.752,2.5H6.76a6.166,6.166,0,0,1,4.493,1.968A6.166,6.166,0,0,1,15.746,2.5Zm-4.5,3.241a.5.5,0,0,1-.4-.2A5.179,5.179,0,0,0,6.756,3.5,5.328,5.328,0,0,0,1.664,7.448,5.713,5.713,0,0,0,1.8,10.585l0,.01c.828,2.687,3.142,6.523,9.452,9.616,6.307-3.092,8.622-6.925,9.452-9.61l0-.01a5.713,5.713,0,0,0,.133-3.137A5.326,5.326,0,0,0,15.749,3.5a5.179,5.179,0,0,0-4.1,2.045A.5.5,0,0,1,11.253,5.741Z" transform="translate(-17.073 -2.498)"/>
  </g>
</svg>
