<svg id="Group_2474" data-name="Group 2474" xmlns="http://www.w3.org/2000/svg" xmlns:xlink="http://www.w3.org/1999/xlink" viewBox="0 0 45.472 50.176">
  <defs>
    <clipPath id="clip-path">
      <rect id="Rectangle_952" data-name="Rectangle 952" width="45.472" height="50.176" fill="none"/>
    </clipPath>
  </defs>
  <g id="Group_2085" data-name="Group 2085" clip-path="url(#clip-path)">
    <path id="Path_4214" data-name="Path 4214" d="M0,162.82v-.2c.2-.11.091-.293.093-.438.013-1.026.012-2.052.015-3.078q3.524-.006,7.047-.01c.13,0,.23-.03.319.176a5.121,5.121,0,0,0,1.5,2,4.572,4.572,0,0,0,5.28.256,4.684,4.684,0,0,0,1.83-5.545,4.576,4.576,0,0,0-4.748-2.877,4.42,4.42,0,0,0-3.853,2.818c-.087.195-.15.229-.324.228q-3.524-.011-7.047-.014V149.7c1.044,0,2.088-.014,3.133-.011a1.22,1.22,0,0,0,.663-.215c.628-.38.756-1.075,1.087-1.639.239-.408.328-1.016.671-1.219.365-.216.95-.056,1.439-.065.2,0,.293.029.4.266a4.55,4.55,0,0,0,5,2.846,4.6,4.6,0,0,0,3.761-5.537,4.525,4.525,0,0,0-4.627-3.623,4.937,4.937,0,0,0-2.461.752,9.6,9.6,0,0,0-1.167.963,2.462,2.462,0,0,0-.514,1.124c-.076.27-.195.272-.394.272q-1.175,0-2.35,0a1.373,1.373,0,0,0-1.234.652,20.618,20.618,0,0,0-1.168,2.22.4.4,0,0,1-.432.27c-.6-.026-1.207-.015-1.81-.019q0-6.447-.008-12.894c0-.107-.039-.232.082-.31a3.788,3.788,0,0,0,3.55,2.925c2.433,0,4.868.049,7.3-.022a2.56,2.56,0,0,1,2.446.995c.087.123.26.182.379.286a13.327,13.327,0,0,0,5.68,2.887,13.993,13.993,0,0,0,4.924.267,13.266,13.266,0,0,0,4.555-1.386,12.4,12.4,0,0,0,3.63-2.7.97.97,0,0,1,.8-.328c2.891.013,5.781,0,8.672.012,1.3.006,1.816.589,1.828,1.8.015,1.437-.008,2.874.012,4.311.005.357-.07.464-.451.461-2.4-.021-4.8-.017-7.2-.006a7.309,7.309,0,0,0-1.637.117A8.788,8.788,0,0,0,29.4,146.4a8.484,8.484,0,0,0-1.658,4.641,7.47,7.47,0,0,0,.28,2.266,8.643,8.643,0,0,0,.735,2.029A8.285,8.285,0,0,0,31.2,158.1a7.529,7.529,0,0,0,4.442,1.581c2.629.023,5.259.013,7.888,0,.343,0,.435.087.431.43q-.029,2.131,0,4.262a1.775,1.775,0,0,1-1.133,1.882H3.234c-.034-.03-.063-.08-.1-.088A3.731,3.731,0,0,1,.465,164.13c-.222-.42-.281-.884-.465-1.31" transform="translate(0 -116.074)"/>
    <path id="Path_4215" data-name="Path 4215" d="M102.2,0c.741.309,1.555.316,2.313.58a11.028,11.028,0,0,1,6.17,5.132,13.857,13.857,0,0,1,1.236,3.454A8.656,8.656,0,0,1,112,11.076a9.993,9.993,0,0,1-1.182,4.829,10.846,10.846,0,0,1-6.627,5.58,10.423,10.423,0,0,1-4.331.446,10.641,10.641,0,0,1-5.982-2.643A10.891,10.891,0,0,1,90.2,9.2a10.625,10.625,0,0,1,1.374-3.8,10.193,10.193,0,0,1,3.056-3.352A11.483,11.483,0,0,1,99.6.1c.068-.01.126-.022.145-.1Zm3.478,11.1c0-.852.006-1.554,0-2.255a1.514,1.514,0,0,0-.738-1.444c-1.058-.562-2.134-1.089-3.21-1.616a1.515,1.515,0,0,0-1.447.008c-1.034.538-2.09,1.034-3.124,1.572a1.172,1.172,0,0,0-.662,1.093c-.007,1.58.012,3.161-.037,4.739a1.576,1.576,0,0,0,1,1.588c.945.468,1.9.916,2.84,1.4a1.483,1.483,0,0,0,1.453,0c1-.508,2-1,3.006-1.489a1.517,1.517,0,0,0,.879-1.261c.1-.829.007-1.66.046-2.338" transform="translate(-78.285 0.001)"/>
    <path id="Path_4216" data-name="Path 4216" d="M249.273,238.193c-.27.095-.23.393-.375.579a1.353,1.353,0,0,1-1.128.6c-2.825-.005-5.651.029-8.475-.018a4.64,4.64,0,0,1-2.762-1.129,5.512,5.512,0,0,1-1.846-2.748,4.91,4.91,0,0,1,.114-3.32,5.275,5.275,0,0,1,3.895-3.424,4.871,4.871,0,0,1,1.043-.133c2.58-.012,5.16-.03,7.74,0a1.488,1.488,0,0,1,1.708,1.253q-.006,3.924-.01,7.847c0,.1-.046.234.1.3Zm-7.938-4.188a1.408,1.408,0,0,0-1.5-1.483,1.449,1.449,0,0,0-1.429,1.468,1.516,1.516,0,0,0,1.44,1.464,1.457,1.457,0,0,0,1.491-1.449" transform="translate(-203.802 -198.699)"/>
    <path id="Path_4217" data-name="Path 4217" d="M.108,145.285,0,145.3V131.871c.191-.044.189.081.182.209-.121.078-.082.2-.082.311q0,6.447.008,12.894" transform="translate(0 -114.623)" fill="#7f7f7f"/>
    <path id="Path_4218" data-name="Path 4218" d="M347.127,246.441c-.142-.063-.1-.193-.1-.3q0-3.923.01-7.847a.348.348,0,0,1,.086.01Z" transform="translate(-301.656 -207.143)" fill="#7f7f7f"/>
    <path id="Path_4219" data-name="Path 4219" d="M.108,263.57,0,263.582v-6.468l.108.012v6.444" transform="translate(0 -223.5)" fill="#7f7f7f"/>
    <path id="Path_4220" data-name="Path 4220" d="M0,329.076l.108.012c0,1.026,0,2.052-.015,3.078,0,.145.1.328-.093.438v-3.528" transform="translate(0 -286.054)" fill="#7f7f7f"/>
    <path id="Path_4221" data-name="Path 4221" d="M31.117,90.2c-1.394,0-2.741-.021-4.088.005a3.2,3.2,0,0,1-3.092-3.39,2.622,2.622,0,0,1,.543-1.622,3.7,3.7,0,0,1,1.989-1.174,25,25,0,0,1,2.91-.087c.089,0,.228-.037.233.1a8.319,8.319,0,0,1,.158,1.051,5.084,5.084,0,0,0,.206,1.819,14.2,14.2,0,0,0,1.141,3.3" transform="translate(-20.801 -72.952)"/>
    <path id="Path_4222" data-name="Path 4222" d="M269.217,90.174a14.444,14.444,0,0,0,1.2-3.616,8.722,8.722,0,0,0,.252-2.331c-.027-.243.04-.357.313-.329a12.548,12.548,0,0,1,1.785.089,1.492,1.492,0,0,1,1.276,1.465c.029,1.484,0,2.968.015,4.452,0,.326-.194.269-.383.269h-4.46" transform="translate(-234.021 -72.926)"/>
    <path id="Path_4223" data-name="Path 4223" d="M78.834,212.537a1.716,1.716,0,0,1-1.661-1.635,1.694,1.694,0,0,1,1.652-1.685,1.659,1.659,0,0,1,1.7,1.628,1.737,1.737,0,0,1-1.691,1.692" transform="translate(-67.083 -181.865)"/>
    <path id="Path_4224" data-name="Path 4224" d="M78.828,308.525a1.712,1.712,0,0,1-1.651-1.645,1.671,1.671,0,0,1,1.613-1.668,1.616,1.616,0,0,1,1.734,1.583,1.713,1.713,0,0,1-1.7,1.73" transform="translate(-67.087 -265.309)"/>
    <path id="Path_4225" data-name="Path 4225" d="M164.521,69.637c.317.944-.219,1.5-1.221,1.863a1.356,1.356,0,0,1-1.013-.013,1.394,1.394,0,0,1-1.1-1.776,1.69,1.69,0,0,0,0-.341c0-1.572,0-1.572,1.488-2.133a4.505,4.505,0,0,1,1.831.863c.024.455.008.912.008,1.538" transform="translate(-140.075 -58.442)"/>
  </g>
</svg>
