<svg xmlns="http://www.w3.org/2000/svg" xmlns:xlink="http://www.w3.org/1999/xlink" width="35" height="35" viewBox="0 0 35 35">
  <defs>
    <clipPath id="clip-path">
      <rect id="Rectangle_790" data-name="Rectangle 790" width="20.167" height="20.167" fill="#fff"/>
    </clipPath>
  </defs>
  <g id="Group_187" data-name="Group 187" transform="translate(-1068 -1096)">
    <circle id="Ellipse_6" data-name="Ellipse 6" cx="17.5" cy="17.5" r="17.5" transform="translate(1068 1096)"/>
    <g id="Group_2035" data-name="Group 2035" transform="translate(1075.417 1103.417)">
      <g id="Group_2034" data-name="Group 2034" transform="translate(0 0)" clip-path="url(#clip-path)">
        <path id="Path_4206" data-name="Path 4206" d="M0,15.659A4.477,4.477,0,0,1,1.319,12.47l1.814-1.814a4.508,4.508,0,0,1,5.192-.847l.314.155L9.964,8.638l-.155-.314a4.536,4.536,0,0,1-.471-2,4.48,4.48,0,0,1,1.318-3.189L12.47,1.319A4.51,4.51,0,0,1,18.849,7.7L17.035,9.511a4.513,4.513,0,0,1-5.684.57l-.333-.222-1.16,1.16.221.333a4.519,4.519,0,0,1-.569,5.682L7.7,18.848a4.515,4.515,0,0,1-6.378,0A4.477,4.477,0,0,1,0,15.659m6.47-4.708c-.049,0-.1-.006-.148-.006a2.883,2.883,0,0,0-2.051.849L2.457,13.608a2.9,2.9,0,0,0,4.1,4.1L8.373,15.9a2.9,2.9,0,0,0,.66-3.077l-.267-.707L7.21,13.669a.8.8,0,1,1-1.138-1.137l1.512-1.513ZM18.558,4.508a2.9,2.9,0,0,0-4.95-2.051L11.795,4.271a2.883,2.883,0,0,0-.85,2.051c0,.048,0,.1.005.143l.064,1.123L12.652,5.95a.8.8,0,1,1,1.139,1.138L12.112,8.766l.706.267a2.893,2.893,0,0,0,3.077-.66L17.71,6.559a2.88,2.88,0,0,0,.848-2.051" transform="translate(0 0)" fill="#fff"/>
      </g>
    </g>
  </g>
</svg>
