<svg xmlns="http://www.w3.org/2000/svg" width="15.789" height="16" viewBox="0 0 15.789 16">
  <path id="wallet-money" d="M6.07,5.868a.43.43,0,0,1-.439-.421V4.184A1.72,1.72,0,0,1,7.386,2.5H14.4a1.72,1.72,0,0,1,1.754,1.684V5.447a.43.43,0,0,1-.439.421ZM4.316,4.184V6.289a.86.86,0,0,0,.877.842H17.035c.969,0,1.754.333,1.754,1.263v8.421A1.72,1.72,0,0,1,17.035,18.5H4.754A1.72,1.72,0,0,1,3,16.816V5.026A1.7,1.7,0,0,1,4.449,3.372,2.8,2.8,0,0,0,4.316,4.184Zm8.772,8.421A1.317,1.317,0,1,0,14.4,11.342,1.29,1.29,0,0,0,13.088,12.605Z" transform="translate(-3 -2.5)" fill="#959595"/>
</svg>
