<svg xmlns="http://www.w3.org/2000/svg" xmlns:xlink="http://www.w3.org/1999/xlink" width="41.198" height="38.156" viewBox="0 0 41.198 38.156">
  <defs>
    <clipPath id="clip-path">
      <rect id="Rectangle_1283" data-name="Rectangle 1283" width="41.198" height="38.156" fill="none"/>
    </clipPath>
  </defs>
  <g id="Group_2505" data-name="Group 2505" transform="translate(-1202 -170)">
    <g id="Group_2503" data-name="Group 2503" transform="translate(1202 170)">
      <path id="Path_4294" data-name="Path 4294" d="M21.845,4.993l-2.92,6.937L34.99.125Z" transform="translate(4.108 0.027)" fill="#e17726"/>
      <path id="Path_4295" data-name="Path 4295" d="M34.991.125,18.925,11.931l2.921-6.937Z" transform="translate(4.108 0.027)" fill="none" stroke="#e17726" stroke-linecap="round" stroke-linejoin="round" stroke-width="0.25"/>
      <path id="Path_4296" data-name="Path 4296" d="M17.647,12.052l-2.8-7.059L1.825.126Z" transform="translate(0.396 0.027)" fill="#e27625"/>
      <path id="Path_4297" data-name="Path 4297" d="M1.825.125,17.647,12.052l-2.8-7.059Z" transform="translate(0.396 0.027)" fill="none" stroke="#e27625" stroke-linecap="round" stroke-linejoin="round" stroke-width="0.25"/>
      <path id="Path_4298" data-name="Path 4298" d="M23.925,29.176l9.129,2.556,2.555-8.885-7.424-.122Z" transform="translate(5.194 4.933)" fill="#e27625"/>
      <g id="Group_2490" data-name="Group 2490" transform="translate(0 0)">
        <g id="Group_2489" data-name="Group 2489" clip-path="url(#clip-path)">
          <path id="Path_4299" data-name="Path 4299" d="M28.185,22.725l-4.26,6.451,9.128,2.556,2.556-8.885Z" transform="translate(5.194 4.933)" fill="none" stroke="#e27625" stroke-linecap="round" stroke-linejoin="round" stroke-width="0.25"/>
        </g>
      </g>
      <path id="Path_4300" data-name="Path 4300" d="M.425,22.847l2.557,8.885,9.127-2.556-4.26-6.451Z" transform="translate(0.092 4.933)" fill="#e27625"/>
      <g id="Group_2492" data-name="Group 2492" transform="translate(0 0)">
        <g id="Group_2491" data-name="Group 2491" clip-path="url(#clip-path)">
          <path id="Path_4301" data-name="Path 4301" d="M.425,22.847l2.556,8.885,9.128-2.556-4.26-6.451Z" transform="translate(0.092 4.933)" fill="none" stroke="#e27625" stroke-linecap="round" stroke-linejoin="round" stroke-width="0.25"/>
        </g>
      </g>
      <path id="Path_4302" data-name="Path 4302" d="M10.081,14.624,7.525,18.4l9.006.365-.243-9.737Z" transform="translate(1.634 1.959)" fill="#e27625"/>
      <path id="Path_4303" data-name="Path 4303" d="M10.081,14.624,7.525,18.4l9.006.365-.243-9.737Z" transform="translate(1.634 1.959)" fill="none" stroke="#e27625" stroke-linecap="round" stroke-linejoin="round" stroke-width="0.25"/>
      <path id="Path_4304" data-name="Path 4304" d="M25.5,14.624l-6.329-5.6-.243,9.858,9.006-.365Z" transform="translate(4.108 1.959)" fill="#e27625"/>
      <path id="Path_4305" data-name="Path 4305" d="M25.5,14.624l-6.329-5.6-.243,9.858,9.006-.365Z" transform="translate(4.108 1.959)" fill="none" stroke="#e27625" stroke-linecap="round" stroke-linejoin="round" stroke-width="0.25"/>
      <path id="Path_4306" data-name="Path 4306" d="M10.025,29.154,15.5,26.476l-4.747-3.651Z" transform="translate(2.176 4.955)" fill="#e27625"/>
      <path id="Path_4307" data-name="Path 4307" d="M10.025,29.154,15.5,26.476l-4.747-3.651Z" transform="translate(2.176 4.955)" fill="none" stroke="#e27625" stroke-linecap="round" stroke-linejoin="round" stroke-width="0.25"/>
      <path id="Path_4308" data-name="Path 4308" d="M19.425,26.476,24.9,29.154l-.73-6.329Z" transform="translate(4.217 4.955)" fill="#e27625"/>
      <path id="Path_4309" data-name="Path 4309" d="M19.425,26.476,24.9,29.154l-.73-6.329Z" transform="translate(4.217 4.955)" fill="none" stroke="#e27625" stroke-linecap="round" stroke-linejoin="round" stroke-width="0.25"/>
      <path id="Path_4310" data-name="Path 4310" d="M24.9,28.5l-5.477-2.678.487,3.53v1.461Z" transform="translate(4.217 5.606)" fill="#d5bfb2"/>
      <path id="Path_4311" data-name="Path 4311" d="M24.9,28.5l-5.477-2.678.487,3.53v1.461Z" transform="translate(4.217 5.606)" fill="none" stroke="#d5bfb2" stroke-linecap="round" stroke-linejoin="round" stroke-width="0.25"/>
      <path id="Path_4312" data-name="Path 4312" d="M10.025,28.481l5.112,2.434V29.455l.487-3.53Z" transform="translate(2.176 5.628)" fill="#d5bfb2"/>
      <path id="Path_4313" data-name="Path 4313" d="M10.025,28.481l5.112,2.434V29.455l.487-3.53Z" transform="translate(2.176 5.628)" fill="none" stroke="#d5bfb2" stroke-linecap="round" stroke-linejoin="round" stroke-width="0.25"/>
      <path id="Path_4314" data-name="Path 4314" d="M15.028,21.424l-4.5-1.339,3.164-1.461Z" transform="translate(2.285 4.043)" fill="#233447"/>
      <path id="Path_4315" data-name="Path 4315" d="M15.028,21.424l-4.5-1.339,3.164-1.461Z" transform="translate(2.285 4.043)" fill="none" stroke="#233447" stroke-linecap="round" stroke-linejoin="round" stroke-width="0.25"/>
      <path id="Path_4316" data-name="Path 4316" d="M19.625,21.424l1.339-2.8,3.164,1.461Z" transform="translate(4.26 4.043)" fill="#233447"/>
      <path id="Path_4317" data-name="Path 4317" d="M19.625,21.424l1.339-2.8,3.164,1.461Z" transform="translate(4.26 4.043)" fill="none" stroke="#233447" stroke-linecap="round" stroke-linejoin="round" stroke-width="0.25"/>
      <path id="Path_4318" data-name="Path 4318" d="M10.785,29.176l.73-6.451-4.99.122Z" transform="translate(1.416 4.933)" fill="#cc6228"/>
      <path id="Path_4319" data-name="Path 4319" d="M10.785,29.176l.73-6.451-4.99.122Z" transform="translate(1.416 4.933)" fill="none" stroke="#cc6228" stroke-linecap="round" stroke-linejoin="round" stroke-width="0.25"/>
      <path id="Path_4320" data-name="Path 4320" d="M23.225,22.725l.73,6.451,4.26-6.329Z" transform="translate(5.042 4.933)" fill="#cc6228"/>
      <path id="Path_4321" data-name="Path 4321" d="M23.225,22.725l.73,6.451,4.26-6.329Z" transform="translate(5.042 4.933)" fill="none" stroke="#cc6228" stroke-linecap="round" stroke-linejoin="round" stroke-width="0.25"/>
      <path id="Path_4322" data-name="Path 4322" d="M28.031,16.825l-9.006.365.852,4.625,1.339-2.8,3.164,1.461Z" transform="translate(4.13 3.652)" fill="#cc6228"/>
      <path id="Path_4323" data-name="Path 4323" d="M28.031,16.825l-9.006.365.852,4.625,1.339-2.8,3.164,1.461Z" transform="translate(4.13 3.652)" fill="none" stroke="#cc6228" stroke-linecap="round" stroke-linejoin="round" stroke-width="0.25"/>
      <path id="Path_4324" data-name="Path 4324" d="M11.176,20.476l3.164-1.461,1.339,2.8.852-4.625-9.006-.365Z" transform="translate(1.634 3.652)" fill="#cc6228"/>
      <path id="Path_4325" data-name="Path 4325" d="M11.176,20.476l3.164-1.461,1.339,2.8.852-4.625-9.006-.365Z" transform="translate(1.634 3.652)" fill="none" stroke="#cc6228" stroke-linecap="round" stroke-linejoin="round" stroke-width="0.25"/>
      <path id="Path_4326" data-name="Path 4326" d="M7.525,16.825,11.3,24.249,11.176,20.6Z" transform="translate(1.634 3.652)" fill="#e27525"/>
      <path id="Path_4327" data-name="Path 4327" d="M7.525,16.825,11.3,24.249,11.176,20.6Z" transform="translate(1.634 3.652)" fill="none" stroke="#e27525" stroke-linecap="round" stroke-linejoin="round" stroke-width="0.25"/>
      <path id="Path_4328" data-name="Path 4328" d="M23.447,20.5l-.122,3.651L27.1,16.725Z" transform="translate(5.064 3.631)" fill="#e27525"/>
      <path id="Path_4329" data-name="Path 4329" d="M23.447,20.5l-.122,3.651L27.1,16.725Z" transform="translate(5.064 3.631)" fill="none" stroke="#e27525" stroke-linecap="round" stroke-linejoin="round" stroke-width="0.25"/>
      <path id="Path_4330" data-name="Path 4330" d="M15.077,17.125l-.852,4.625,1.1,5.477.243-7.181Z" transform="translate(3.088 3.718)" fill="#e27525"/>
      <path id="Path_4331" data-name="Path 4331" d="M15.077,17.125l-.852,4.625,1.1,5.477.243-7.181Z" transform="translate(3.088 3.718)" fill="none" stroke="#e27525" stroke-linecap="round" stroke-linejoin="round" stroke-width="0.25"/>
      <path id="Path_4332" data-name="Path 4332" d="M19.012,17.125l-.487,2.921.243,7.181,1.1-5.477Z" transform="translate(4.022 3.718)" fill="#e27525"/>
      <path id="Path_4333" data-name="Path 4333" d="M19.012,17.125l-.487,2.921.243,7.181,1.1-5.477Z" transform="translate(4.022 3.718)" fill="none" stroke="#e27525" stroke-linecap="round" stroke-linejoin="round" stroke-width="0.25"/>
      <path id="Path_4334" data-name="Path 4334" d="M19.82,21.164l-1.1,5.477.73.487L24.2,23.476l.122-3.651Z" transform="translate(4.065 4.304)" fill="#f5841f"/>
      <path id="Path_4335" data-name="Path 4335" d="M19.82,21.164l-1.1,5.477.73.487L24.2,23.476l.122-3.651Z" transform="translate(4.065 4.304)" fill="none" stroke="#f5841f" stroke-linecap="round" stroke-linejoin="round" stroke-width="0.25"/>
      <path id="Path_4336" data-name="Path 4336" d="M10.525,19.825l.122,3.651,4.747,3.651.73-.487-1.1-5.477Z" transform="translate(2.285 4.304)" fill="#f5841f"/>
      <path id="Path_4337" data-name="Path 4337" d="M10.525,19.825l.122,3.651,4.747,3.651.73-.487-1.1-5.477Z" transform="translate(2.285 4.304)" fill="none" stroke="#f5841f" stroke-linecap="round" stroke-linejoin="round" stroke-width="0.25"/>
      <path id="Path_4338" data-name="Path 4338" d="M21.831,30.459V29l-.366-.364H15.38L15.014,29v1.462l-4.989-2.434,1.826,1.461,3.53,2.434h6.206l3.652-2.434,1.7-1.461Z" transform="translate(2.176 6.084)" fill="#c0ac9d"/>
      <g id="Group_2494" data-name="Group 2494" transform="translate(0 0)">
        <g id="Group_2493" data-name="Group 2493" clip-path="url(#clip-path)">
          <path id="Path_4339" data-name="Path 4339" d="M21.831,30.459V29l-.365-.365H15.38L15.015,29v1.461l-4.99-2.434,1.826,1.461,3.53,2.434h6.207l3.651-2.434,1.7-1.461Z" transform="translate(2.176 6.084)" fill="none" stroke="#c0ac9d" stroke-linecap="round" stroke-linejoin="round" stroke-width="0.25"/>
        </g>
      </g>
      <path id="Path_4340" data-name="Path 4340" d="M20.576,25.912l-.73-.487h-4.5l-.73.487-.487,3.53.365-.365h6.085l.365.365Z" transform="translate(3.066 5.519)" fill="#161616"/>
      <path id="Path_4341" data-name="Path 4341" d="M20.576,25.912l-.73-.487h-4.5l-.73.487-.487,3.53.365-.365h6.085l.365.365Z" transform="translate(3.066 5.519)" fill="none" stroke="#161616" stroke-linecap="round" stroke-linejoin="round" stroke-width="0.25"/>
      <path id="Path_4342" data-name="Path 4342" d="M19.425,11.566l5.964,4.99,8.4,2.434L35.612,16.8l-.852-.487L36.1,15.1l-.974-.73,1.338-.974-.974-.609L36.829,6.21,34.76.125Z" transform="translate(4.217 0.027)" fill="#763e1a"/>
      <g id="Group_2496" data-name="Group 2496" transform="translate(0 0)">
        <g id="Group_2495" data-name="Group 2495" clip-path="url(#clip-path)">
          <path id="Path_4343" data-name="Path 4343" d="M35.491,12.783,36.829,6.21,34.76.125,19.425,11.566l5.964,4.99,8.4,2.434L35.612,16.8l-.852-.487L36.1,15.1l-.974-.73,1.339-.974Z" transform="translate(4.217 0.027)" fill="none" stroke="#763e1a" stroke-linecap="round" stroke-linejoin="round" stroke-width="0.25"/>
        </g>
      </g>
      <path id="Path_4344" data-name="Path 4344" d="M.125,6.21l1.339,6.572-.852.609,1.339.975-.974.729,1.339,1.217-.852.609L3.29,19.111l8.4-2.434,5.965-4.99L2.194.126Z" transform="translate(0.027 0.027)" fill="#763e1a"/>
      <g id="Group_2498" data-name="Group 2498" transform="translate(0 0)">
        <g id="Group_2497" data-name="Group 2497" clip-path="url(#clip-path)">
          <path id="Path_4345" data-name="Path 4345" d="M.125,6.21l1.339,6.572-.852.609,1.339.974-.974.73,1.339,1.217-.852.609,1.826,2.191,8.4-2.434,5.964-4.99L2.194.125Z" transform="translate(0.027 0.027)" fill="none" stroke="#763e1a" stroke-linecap="round" stroke-linejoin="round" stroke-width="0.25"/>
        </g>
      </g>
      <path id="Path_4346" data-name="Path 4346" d="M27.1,17.4l-3.773,7.424,4.99-.122h7.424l-2.8-8.641-8.4-2.434Z" transform="translate(5.063 2.958)" fill="#f5841f"/>
      <g id="Group_2500" data-name="Group 2500" transform="translate(0 0)">
        <g id="Group_2499" data-name="Group 2499" clip-path="url(#clip-path)">
          <path id="Path_4347" data-name="Path 4347" d="M32.94,16.059l-8.4-2.434L27.1,17.4l-3.773,7.424,4.99-.122h7.424Z" transform="translate(5.064 2.958)" fill="none" stroke="#f5841f" stroke-linecap="round" stroke-linejoin="round" stroke-width="0.25"/>
        </g>
      </g>
      <path id="Path_4348" data-name="Path 4348" d="M3.224,16.059.425,24.7H7.849l4.99.122L9.067,17.4l2.555-3.773Z" transform="translate(0.092 2.958)" fill="#f5841f"/>
      <g id="Group_2502" data-name="Group 2502" transform="translate(0 0)">
        <g id="Group_2501" data-name="Group 2501" clip-path="url(#clip-path)">
          <path id="Path_4349" data-name="Path 4349" d="M11.622,13.625l-8.4,2.434L.425,24.7H7.849l4.99.122L9.066,17.4Z" transform="translate(0.092 2.958)" fill="none" stroke="#f5841f" stroke-linecap="round" stroke-linejoin="round" stroke-width="0.25"/>
        </g>
      </g>
      <path id="Path_4350" data-name="Path 4350" d="M20.336,19.947l.487-9.25,2.434-6.572H12.425L14.859,10.7l.487,9.25.243,2.921v7.181h4.5V22.868Z" transform="translate(2.697 0.895)" fill="#f5841f"/>
      <path id="Path_4351" data-name="Path 4351" d="M20.336,19.947l.487-9.25,2.434-6.572H12.425L14.859,10.7l.487,9.25.243,2.921v7.181h4.5V22.868Z" transform="translate(2.697 0.895)" fill="none" stroke="#f5841f" stroke-linecap="round" stroke-linejoin="round" stroke-width="0.25"/>
    </g>
  </g>
</svg>
