<svg id="Group_2486" data-name="Group 2486" xmlns="http://www.w3.org/2000/svg"  viewBox="0 0 21.584 21.8">
  <g id="Group_2235" data-name="Group 2235">
    <path id="Path_4276" data-name="Path 4276" d="M20,20.032a5.466,5.466,0,1,0-5.466-5.466A5.466,5.466,0,0,0,20,20.032ZM20,11.4a3.166,3.166,0,1,1-3.166,3.166A3.169,3.169,0,0,1,20,11.4Z" transform="translate(-9.208 -9.1)"/>
    <path id="Path_4277" data-name="Path 4277" d="M20,20.708c-5.96,0-10.792,4.232-10.792,10.192H30.792C30.792,24.94,25.96,20.708,20,20.708Zm0,2.3A8.216,8.216,0,0,1,28.154,28.6H11.846A8.216,8.216,0,0,1,20,23.008Z" transform="translate(-9.208 -9.1)"/>
  </g>
</svg>
