<svg xmlns="http://www.w3.org/2000/svg" width="22.61" height="16.12" viewBox="0 0 22.61 16.12">
  <g id="Group_2176" data-name="Group 2176" transform="translate(-22.183 -180.955)">
    <g id="Group_2173" data-name="Group 2173" transform="translate(22.183 180.955)">
      <g id="Group_2172" data-name="Group 2172" transform="translate(0 0)">
        <path id="Path_4260" data-name="Path 4260" d="M36.233,184.808h6.886v-2.666a1.182,1.182,0,0,0-1.178-1.187H23.361a1.182,1.182,0,0,0-1.178,1.187v13.746a1.182,1.182,0,0,0,1.178,1.187H41.942a1.182,1.182,0,0,0,1.178-1.187v-2.666H36.233a2.586,2.586,0,0,1-2.573-2.593V187.4A2.586,2.586,0,0,1,36.233,184.808Z" transform="translate(-22.183 -180.955)" fill="#f1ba58"/>
      </g>
    </g>
    <g id="Group_2175" data-name="Group 2175" transform="translate(35.208 186.428)">
      <g id="Group_2174" data-name="Group 2174" transform="translate(0 0)">
        <path id="Path_4261" data-name="Path 4261" d="M301.587,293.361h-7.641a.972.972,0,0,0-.972.972v3.228a.972.972,0,0,0,.972.972h7.641a.972.972,0,0,0,.972-.972v-3.228A.972.972,0,0,0,301.587,293.361Zm-6.032,3.728a1.141,1.141,0,1,1,1.141-1.141A1.141,1.141,0,0,1,295.554,297.089Z" transform="translate(-292.974 -293.361)" fill="#f1ba58"/>
      </g>
    </g>
  </g>
</svg>
