<svg id="Component_66_2" data-name="Component 66 – 2" xmlns="http://www.w3.org/2000/svg" xmlns:xlink="http://www.w3.org/1999/xlink" viewBox="0 0 23.672 26.314">
  <defs>
    <clipPath id="clip-path">
      <rect id="Rectangle_1183" data-name="Rectangle 1183" width="23.672" height="26.314"/>
    </clipPath>
  </defs>
  <g id="Group_2277" data-name="Group 2277" clip-path="url(#clip-path)">
    <path id="Path_4255" data-name="Path 4255" d="M19.941,27.036H3.731A3.736,3.736,0,0,1,0,23.3V7.1A3.582,3.582,0,0,1,3.4,3.364H6.213a.589.589,0,1,1,0,1.178H3.4A2.408,2.408,0,0,0,1.178,7.1V23.3a2.556,2.556,0,0,0,2.553,2.553h16.21A2.556,2.556,0,0,0,22.494,23.3V7.1c0-1.383-.857-2.553-1.871-2.553h-2.46a.589.589,0,0,1,0-1.178h2.46c1.682,0,3.049,1.674,3.049,3.731V23.3a3.736,3.736,0,0,1-3.731,3.731" transform="translate(0 -0.722)"/>
    <path id="Path_4256" data-name="Path 4256" d="M18.081,4.542h-7.5a.589.589,0,1,1,0-1.178h7.5a.589.589,0,0,1,0,1.178" transform="translate(-2.144 -0.722)"/>
    <path id="Path_4257" data-name="Path 4257" d="M23.083,12.073H.589a.589.589,0,1,1,0-1.178H23.083a.589.589,0,1,1,0,1.178" transform="translate(0 -2.337)"/>
    <path id="Path_4258" data-name="Path 4258" d="M8.862,6.395a1.7,1.7,0,0,1-1.7-1.7V1.7a1.7,1.7,0,0,1,3.405,0V4.693a1.7,1.7,0,0,1-1.7,1.7m0-5.217a.525.525,0,0,0-.525.524V4.693a.524.524,0,0,0,.523.523h0a.524.524,0,0,0,.524-.523V1.7a.524.524,0,0,0-.524-.524" transform="translate(-1.536)"/>
    <path id="Path_4259" data-name="Path 4259" d="M21.24,6.395a1.7,1.7,0,0,1-1.7-1.7V1.7a1.7,1.7,0,1,1,3.4,0V4.693a1.7,1.7,0,0,1-1.7,1.7m0-5.217a.524.524,0,0,0-.523.524V4.693a.524.524,0,0,0,1.047,0V1.7a.524.524,0,0,0-.524-.524" transform="translate(-4.191)"/>
  </g>
</svg>
