<svg id="Group_2243" data-name="Group 2243" xmlns="http://www.w3.org/2000/svg"  viewBox="0 0 25.056 18.871">
  <path id="Path_4280" data-name="Path 4280" d="M-152.571-102.708v17.516l-.008.009.008.006v1.341h25.048v-18.871Zm2.05,2.05h20.947v13.571l-7.078-6.217-2.477,2.935-5.3-4.842-6.091,7.5Zm19.207,14.771h-18.052l5.156-6.346,5.272,4.816,2.5-2.967Z" transform="translate(152.579 102.708)" fill="#959595"/>
  <path id="Path_4281" data-name="Path 4281" d="M-131.248-92.626a3.147,3.147,0,0,0,3.146-3.146,3.146,3.146,0,0,0-3.146-3.145,3.145,3.145,0,0,0-3.145,3.145A3.146,3.146,0,0,0-131.248-92.626Zm0-3.991a.847.847,0,0,1,.846.845.848.848,0,0,1-.846.846.847.847,0,0,1-.845-.846A.846.846,0,0,1-131.248-96.617Z" transform="translate(149.525 102.122)" fill="#959595"/>
</svg>
