<svg id="Group_2478" data-name="Group 2478" xmlns="http://www.w3.org/2000/svg" xmlns:xlink="http://www.w3.org/1999/xlink" viewBox="0 0 48.952 48.952">
  <defs>
    <clipPath id="clip-path">
      <rect id="Rectangle_956" data-name="Rectangle 956" width="48.952" height="48.952" fill="none"/>
    </clipPath>
  </defs>
  <g id="Group_2093" data-name="Group 2093" clip-path="url(#clip-path)">
    <path id="Path_4240" data-name="Path 4240" d="M53.648,237.356A7.225,7.225,0,0,1,51,236.222a5.6,5.6,0,0,1-2.32-4.552c-.027-3.344-.02-6.689,0-10.033a5.721,5.721,0,0,1,5.692-5.693q12.565-.02,25.131,0a5.717,5.717,0,0,1,5.692,5.693c.017,3.3.008,6.593,0,9.89a5.736,5.736,0,0,1-4.758,5.742,1.156,1.156,0,0,0-.212.087Zm12.233-4.9c0,.009,0,.018,0,.027.524-.027,1.052-.023,1.572-.087A3.714,3.714,0,0,0,67.143,225a1.685,1.685,0,0,1-.514-.089.841.841,0,0,1,.285-1.629c.764-.018,1.53.011,2.293-.017a1.443,1.443,0,0,0,1.459-1.457,1.423,1.423,0,0,0-1.5-1.4c-.812-.008-1.625-.02-2.436.011a3.714,3.714,0,0,0-.256,7.395c.158.02.317.033.475.051a.856.856,0,0,1,.847.856.845.845,0,0,1-.857.85c-.731.03-1.465.007-2.2.015a1.434,1.434,0,0,0-1.529,1.373,1.454,1.454,0,0,0,1.476,1.489c.4.018.8,0,1.194,0m-10.607-5.992c0-1.5,0-2.991,0-4.486a1.438,1.438,0,1,0-2.866-.006q-.005,4.438,0,8.876a1.442,1.442,0,1,0,2.867.006c0-1.464,0-2.927,0-4.391m23.328-.036q0,2.2,0,4.39a1.445,1.445,0,1,0,2.867.018q0-4.414,0-8.829a1.441,1.441,0,1,0-2.867-.018c0,1.479,0,2.959,0,4.438" transform="translate(-42.462 -188.404)"/>
    <path id="Path_4241" data-name="Path 4241" d="M93.675,0c.964.191,1.948.313,2.889.585A14.5,14.5,0,0,1,107.04,15.24a14.136,14.136,0,0,1-3.853,9.134.978.978,0,0,1-.645.281q-10.014.022-20.028,0a.977.977,0,0,1-.644-.282A14.477,14.477,0,0,1,87.68.863,28.82,28.82,0,0,1,91.111.077c.091-.02.18-.051.27-.077Zm5.641,14.533c0-.924-.023-1.849.007-2.772a1.686,1.686,0,0,0-.953-1.67q-2.481-1.383-4.933-2.818a1.637,1.637,0,0,0-1.8-.009q-2.5,1.456-5.015,2.868a1.589,1.589,0,0,0-.89,1.51q.019,2.892,0,5.783a1.562,1.562,0,0,0,.849,1.486q2.556,1.446,5.1,2.911a1.54,1.54,0,0,0,1.667.014q2.566-1.476,5.141-2.935a1.532,1.532,0,0,0,.827-1.452c-.012-.972,0-1.944,0-2.916" transform="translate(-68.052)"/>
    <path id="Path_4242" data-name="Path 4242" d="M332.181,4.207c-.247.449-.518.917-1.071.979a6.991,6.991,0,0,1-1.32-.1c0,1.041.012,2.164,0,3.286A1.424,1.424,0,0,1,327.8,9.728a1.393,1.393,0,0,1-.878-1.356c-.006-1.1,0-2.193,0-3.334l-.366.124a1.439,1.439,0,0,1-1.628-.462,1.348,1.348,0,0,1,0-1.723c.816-.912,1.681-1.779,2.538-2.653a2.594,2.594,0,0,1,.51-.323h.765a16.22,16.22,0,0,1,3.442,3.442Z" transform="translate(-283.228)"/>
    <path id="Path_4243" data-name="Path 4243" d="M0,82.056c.575-.627,1.142-1.262,1.727-1.879.328-.347.68-.672,1.031-1a1.437,1.437,0,0,1,2.163.033Q6,80.265,7.051,81.342a1.434,1.434,0,0,1-1.577,2.37c-.057-.022-.117-.036-.215-.065,0,1.078,0,2.127,0,3.176A1.464,1.464,0,0,1,3.839,88.46,1.466,1.466,0,0,1,2.391,86.8c0-1.062,0-2.124,0-3.125a6.09,6.09,0,0,1-1.227.15c-.6-.047-.9-.524-1.164-1.008v-.765" transform="translate(0 -68.671)"/>
    <path id="Path_4244" data-name="Path 4244" d="M169.025,84.329c0,.541-.028,1.084.009,1.623a.782.782,0,0,1-.482.855c-1.038.552-2.053,1.148-3.066,1.747a.632.632,0,0,1-.738.011q-1.6-.947-3.229-1.847a.578.578,0,0,1-.341-.6c.016-1.225.014-2.451,0-3.676a.543.543,0,0,1,.317-.562c1.1-.607,2.178-1.251,3.28-1.852a.775.775,0,0,1,.634-.015q1.676.909,3.312,1.892a.725.725,0,0,1,.288.511c.035.635.014,1.272.014,1.909" transform="translate(-140.629 -69.762)"/>
  </g>
</svg>
