<svg id="Group_2477" data-name="Group 2477" xmlns="http://www.w3.org/2000/svg" xmlns:xlink="http://www.w3.org/1999/xlink" viewBox="0 0 48.952 48.952">
  <defs>
    <clipPath id="clip-path">
      <rect id="Rectangle_957" data-name="Rectangle 957" width="48.952" height="48.952" fill="none"/>
    </clipPath>
  </defs>
  <g id="Group_2095" data-name="Group 2095" clip-path="url(#clip-path)">
    <path id="Path_4245" data-name="Path 4245" d="M0,122.148l2.1,2.069a.441.441,0,0,0,.11.092c.855.4.974,1.093.968,1.981-.041,5.973-.022,11.947-.021,17.921a4.318,4.318,0,0,0,4.593,4.612H41.2a4.317,4.317,0,0,0,4.6-4.61q0-11.613,0-23.226a.664.664,0,0,1,.133-.427c.773-.8,1.562-1.588,2.448-2.48l.575,2.059v25.528a1.871,1.871,0,0,0-.09.26,7.112,7.112,0,0,1-5.307,5.827c-.3.089-.609.15-.913.223H6.31a1.892,1.892,0,0,0-.26-.09,7.112,7.112,0,0,1-5.814-5.26c-.1-.315-.158-.639-.236-.96v-23.52" transform="translate(0 -103.026)"/>
    <path id="Path_4246" data-name="Path 4246" d="M11.76,0c.784.187,1.587.317,2.349.57A10.7,10.7,0,1,1,.086,12.024,1.453,1.453,0,0,0,0,11.76v-2.1a1.728,1.728,0,0,0,.086-.264A10.54,10.54,0,0,1,7.671.459C8.313.246,8.994.15,9.656,0ZM6.214,10.7c0,.717.009,1.434,0,2.151a1.508,1.508,0,0,0,.913,1.49q1.413.7,2.816,1.411a1.559,1.559,0,0,0,1.508.013c.964-.49,1.936-.966,2.9-1.454a1.449,1.449,0,0,0,.852-1.382q0-2.223,0-4.445A1.417,1.417,0,0,0,14.4,7.129c-1.006-.513-2.02-1.012-3.03-1.517a1.447,1.447,0,0,0-1.374.026c-.966.488-1.936.967-2.9,1.451a1.466,1.466,0,0,0-.874,1.416c0,.733,0,1.466,0,2.2"/>
    <path id="Path_4247" data-name="Path 4247" d="M227.5,51.539a5.5,5.5,0,0,1-1.638,2.343q-7.967,7.944-15.91,15.912a2.269,2.269,0,0,1-1.492.746c-.746.055-1.487.173-2.232.224a1.38,1.38,0,0,1-1.584-1.567c.065-.888.159-1.777.305-2.655a1.7,1.7,0,0,1,.463-.858q8.413-8.444,16.855-16.859a3.043,3.043,0,0,1,5.124,1.316,2.426,2.426,0,0,0,.109.25Z" transform="translate(-178.543 -41.787)"/>
    <path id="Path_4248" data-name="Path 4248" d="M47.246,137.9a13.1,13.1,0,0,0,4.47.818A13.387,13.387,0,0,0,63.858,131.6a.716.716,0,0,1,.727-.438c2.15.02,4.3.01,6.567.01-.168.181-.274.3-.386.414-1.531,1.533-3.055,3.074-4.6,4.593a4.594,4.594,0,0,0-1.449,2.977c-.067.793-.208,1.58-.257,2.374a4.264,4.264,0,0,0,4.775,4.742c.92-.065,1.839-.175,2.753-.308a4.419,4.419,0,0,0,2.521-1.35q4.587-4.606,9.19-9.2c.12-.12.246-.235.452-.43v.547q0,10.061,0,20.122c0,1.177-.541,1.713-1.728,1.713H48.965a1.494,1.494,0,0,1-1.719-1.721q0-8.6,0-17.206V137.9" transform="translate(-41.222 -114.436)"/>
    <path id="Path_4249" data-name="Path 4249" d="M199.951,85c-1.029,1.017-1.975,1.959-2.933,2.889a.6.6,0,0,1-.382.131q-4.254.008-8.508,0a.374.374,0,0,1-.091-.023l.369-3Z" transform="translate(-164.063 -74.163)"/>
    <path id="Path_4250" data-name="Path 4250" d="M74.093,69.515c.409,1.1-.249,1.648-1.247,1.954a1.266,1.266,0,0,1-.65.009c-1.076-.272-1.38-.939-1.365-2.065.014-1.066.244-1.716,1.294-2.032a.878.878,0,0,1,.789.019c.382.224.957.32,1.133.643.2.365.046.921.046,1.472" transform="translate(-61.8 -58.717)"/>
  </g>
</svg>
