<svg xmlns="http://www.w3.org/2000/svg" viewBox="0 0 26.743 26.742">
  <g id="Group_129" data-name="Group 129" transform="translate(0.062 0.062)">
    <g id="Group_2069" data-name="Group 2069" transform="translate(0 0.001)">
      <path id="Path_77" data-name="Path 77" d="M14.967,3.848A5.612,5.612,0,1,1,9.355,9.46,5.619,5.619,0,0,1,14.967,3.848Zm0,10.224A4.612,4.612,0,1,0,10.355,9.46,4.618,4.618,0,0,0,14.967,14.072Z" transform="translate(-1.659 -0.541)"/>
      <path id="Path_78" data-name="Path 78" d="M22.239,25.936a.5.5,0,0,1-.5-.5V23.651a7.128,7.128,0,1,0-14.256,0v1.786a.5.5,0,0,1-1,0V23.651a8.128,8.128,0,1,1,16.256,0v1.786A.5.5,0,0,1,22.239,25.936Z" transform="translate(-1.302 -1.991)"/>
      <path id="Path_79" data-name="Path 79" d="M13.372,26.742A13.371,13.371,0,0,1,3.917,3.916a13.371,13.371,0,1,1,18.91,18.909A13.283,13.283,0,0,1,13.372,26.742ZM13.372,1A12.371,12.371,0,1,0,25.743,13.371,12.385,12.385,0,0,0,13.372,1Z" transform="translate(-0.062 -0.063)"/>
    </g>
  </g>
</svg>
