<svg xmlns="http://www.w3.org/2000/svg" viewBox="0 0 29.341 27.489">
  <g id="Group_127" data-name="Group 127" transform="translate(-0.524 0.087)">
    <g id="Group_2070" data-name="Group 2070" transform="translate(0.611 0)">
      <path id="Path_74" data-name="Path 74" d="M26.39,18.66H7.252a.5.5,0,0,1-.5-.438L4.616,1H.5a.5.5,0,1,1,0-1H5.057a.5.5,0,0,1,.5.438L6.3,6.414a.5.5,0,0,1,.072-.005H28.841a.5.5,0,0,1,.489.606L26.878,18.267A.5.5,0,0,1,26.39,18.66Zm-18.7-1H25.987L28.22,7.409H6.42Z" transform="translate(-0.087 -0.087)"/>
      <path id="Path_75" data-name="Path 75" d="M14.005,25.536a3.205,3.205,0,1,1-3.207,3.2A3.209,3.209,0,0,1,14.005,25.536Zm0,5.411A2.205,2.205,0,1,0,11.8,28.741,2.208,2.208,0,0,0,14.005,30.947Z" transform="translate(-1.972 -4.545)"/>
      <path id="Path_76" data-name="Path 76" d="M26.4,25.536a3.205,3.205,0,1,1-3.207,3.2A3.209,3.209,0,0,1,26.4,25.536Zm0,5.411a2.205,2.205,0,1,0-2.207-2.206A2.208,2.208,0,0,0,26.4,30.947Z" transform="translate(-4.135 -4.545)"/>
    </g>
  </g>
</svg>
