<svg xmlns="http://www.w3.org/2000/svg" width="63.75" height="51" viewBox="0 0 63.75 51">
  <path id="image" d="M59.375,4h-51A6.373,6.373,0,0,0,2,10.375v38.25A6.373,6.373,0,0,0,8.375,55h51a6.373,6.373,0,0,0,6.375-6.375V10.375A6.373,6.373,0,0,0,59.375,4ZM27.5,16.75a3.188,3.188,0,1,1-3.187,3.188A3.189,3.189,0,0,1,27.5,16.75ZM53,45.437H14.82a1.593,1.593,0,0,1-1.256-2.572L21.5,32.659a1.593,1.593,0,0,1,2.483-.038l6.7,8.068,9.875-12.724a1.593,1.593,0,0,1,2.534.022l11.179,14.9A1.594,1.594,0,0,1,53,45.437Z" transform="translate(-2 -4)" fill="#dcdde6"/>
</svg>
