<svg xmlns="http://www.w3.org/2000/svg" width="68" height="68" viewBox="0 0 68 68">
  <g id="exhibition_gallery_painting_museum" data-name="exhibition, gallery, painting, museum" transform="translate(-8 -8)">
    <path id="Path_4266" data-name="Path 4266" d="M74.3,78H72.6V47.4h1.7a1.7,1.7,0,1,0,0-3.4H67.5a1.7,1.7,0,1,0,0,3.4h1.7v.765c-13.09,9.18-41.31,9.18-54.4,0V47.4h1.7a1.7,1.7,0,0,0,0-3.4H9.7a1.7,1.7,0,0,0,0,3.4h1.7V78H9.7a1.7,1.7,0,0,0,0,3.4h6.8a1.7,1.7,0,1,0,0-3.4H14.8V52.245C21.94,56.41,31.97,58.45,42,58.45s20.06-2.04,27.2-6.205V78H67.5a1.7,1.7,0,1,0,0,3.4h6.8a1.7,1.7,0,1,0,0-3.4Z" transform="translate(0 -5.4)" fill="#dcdde6"/>
    <path id="Path_4267" data-name="Path 4267" d="M40.835,18.455l4.08,2.72L52.48,15.14a1.7,1.7,0,0,1,2.04,0L62,20.75V9.7A1.7,1.7,0,0,0,60.3,8H29.7A1.7,1.7,0,0,0,28,9.7V25.765l10.965-7.31A1.87,1.87,0,0,1,40.835,18.455Z" transform="translate(-3)" fill="#dcdde6"/>
    <path id="Path_4268" data-name="Path 4268" d="M29.7,33.675H60.3a1.7,1.7,0,0,0,1.7-1.7v-5.1L53.5,20.5l-7.4,6.035a1.955,1.955,0,0,1-2.04.085L39.9,23.815,28,31.72v.255A1.7,1.7,0,0,0,29.7,33.675Z" transform="translate(-3 -1.875)" fill="#dcdde6"/>
  </g>
</svg>
