<svg id="mark" xmlns="http://www.w3.org/2000/svg" xmlns:xlink="http://www.w3.org/1999/xlink" viewBox="0 0 30 30">
  <defs>
    <clipPath id="clip-path">
      <rect id="Rectangle_936" data-name="Rectangle 936" width="23.076" height="14.063" fill="#fff"/>
    </clipPath>
  </defs>
  <circle id="Ellipse_117" data-name="Ellipse 117" cx="15" cy="15" r="15" fill="#f1ba58"/>
  <g id="Group_2081" data-name="Group 2081" transform="translate(5.462 7.969)">
    <g id="Group_2080" data-name="Group 2080" clip-path="url(#clip-path)">
      <path id="Path_4211" data-name="Path 4211" d="M12.535,9.194c-.188.146-.355.288-.509.41a6.49,6.49,0,0,1-1.285.847c.007-1.015.945-3.122,1.708-4.831C13.669,2.888,14.6,1.3,14.108.431A1.235,1.235,0,0,0,12.931,0,8.662,8.662,0,0,0,7.249,3a1.485,1.485,0,0,0-.024-.556.944.944,0,0,0-.453-.588C5.214,1,2.78,2.614,2.126,3.551A.739.739,0,1,0,3.339,4.4a4.1,4.1,0,0,1,2.4-1.314A12.961,12.961,0,0,1,4.411,5.86c-.151.255-.338.619-.551,1.056-.266.319-.533.639-.8.948C.193,11.232.1,12.1.024,12.742l-.009.077a.989.989,0,0,0,.615,1.2.9.9,0,0,0,.279.045c.969,0,1.846-1.539,1.952-1.73.514-.934,1.113-2.2,1.641-3.326.214-.454.422-.9.611-1.285l.355-.429c2.36-2.852,4.393-5.845,6.6-5.881-.563,1.06-.977,1.736-1.922,3.678-1.084,2.229-1.876,4.3-1.618,5.618a1.379,1.379,0,0,0,1.5,1.2,9.183,9.183,0,0,0,2.761-1.57c.659-.453,2.029-1.453,3-2.067a15.238,15.238,0,0,1,4.052-1.731,16.461,16.461,0,0,1,1.76-.382,1.7,1.7,0,0,0,1.378-.766.707.707,0,0,0-.628-1.069,11.875,11.875,0,0,0-4.737,1.372,33.518,33.518,0,0,0-5.082,3.5" transform="translate(0 0)" fill="#fff"/>
    </g>
  </g>
</svg>
