<svg xmlns="http://www.w3.org/2000/svg"  viewBox="0 0 17.859 17.859">
  <path id="Icon" d="M8.93,17.859c-2.434,0-2.747-.014-3.678-.055H5.244a6.537,6.537,0,0,1-2.166-.414A4.367,4.367,0,0,1,1.5,16.361a4.367,4.367,0,0,1-1.029-1.58,6.526,6.526,0,0,1-.414-2.166C.007,11.65,0,11.352,0,8.93S.014,6.183.055,5.252V5.244A6.537,6.537,0,0,1,.469,3.078,4.367,4.367,0,0,1,1.5,1.5,4.367,4.367,0,0,1,3.078.469,6.526,6.526,0,0,1,5.244.055C6.209.007,6.507,0,8.93,0s2.746.014,3.677.055h.007a6.537,6.537,0,0,1,2.166.414A4.367,4.367,0,0,1,16.361,1.5a4.367,4.367,0,0,1,1.029,1.58A6.526,6.526,0,0,1,17.8,5.244c.048.965.055,1.263.055,3.686s-.014,2.746-.055,3.677v.007a6.537,6.537,0,0,1-.414,2.166,4.558,4.558,0,0,1-2.609,2.609,6.526,6.526,0,0,1-2.166.414C11.65,17.852,11.352,17.859,8.93,17.859Zm0-15.627c-2.136,0-2.417.012-3.251.048H5.665l-.034,0a4.531,4.531,0,0,0-1.514.284,2.573,2.573,0,0,0-.94.611,2.542,2.542,0,0,0-.611.94,4.482,4.482,0,0,0-.284,1.514c-.044.856-.05,1.122-.05,3.3,0,2.135.012,2.416.048,3.25v.014l0,.034a4.531,4.531,0,0,0,.284,1.514,2.573,2.573,0,0,0,.611.94,2.542,2.542,0,0,0,.94.611,4.482,4.482,0,0,0,1.514.284c.856.044,1.122.05,3.3.05,2.136,0,2.415-.012,3.244-.048h.012l.041,0a4.531,4.531,0,0,0,1.514-.284,2.573,2.573,0,0,0,.94-.611,2.542,2.542,0,0,0,.611-.94,4.482,4.482,0,0,0,.284-1.514V12.2c.037-.84.049-1.123.049-3.273s-.012-2.417-.048-3.251V5.665l0-.034a4.531,4.531,0,0,0-.284-1.514,2.573,2.573,0,0,0-.611-.94,2.542,2.542,0,0,0-.94-.611,4.482,4.482,0,0,0-1.514-.284C11.371,2.238,11.1,2.232,8.93,2.232Zm0,11.162A4.464,4.464,0,1,1,13.394,8.93,4.47,4.47,0,0,1,8.93,13.394Zm0-6.7A2.232,2.232,0,1,0,11.162,8.93,2.235,2.235,0,0,0,8.93,6.7Zm4.464-1.116A1.116,1.116,0,1,1,14.51,4.465,1.117,1.117,0,0,1,13.394,5.581Z" fill="#fff"/>
</svg>
