<svg xmlns="http://www.w3.org/2000/svg" xmlns:xlink="http://www.w3.org/1999/xlink" viewBox="0 0 65 65">
  <defs>
    <clipPath id="clip-path">
      <rect id="Rectangle_19" data-name="Rectangle 19" width="27.164" height="27.164" fill="#959595"/>
    </clipPath>
  </defs>
  <g id="Group_2471" data-name="Group 2471" transform="translate(-1521 -1106)">
    <circle id="Ellipse_2" data-name="Ellipse 2" cx="32.5" cy="32.5" r="32.5" transform="translate(1521 1106)" fill="#ebebeb"/>
    <g id="instagram" transform="translate(1540 1125)">
      <g id="Group_21" data-name="Group 21" clip-path="url(#clip-path)">
        <path id="Path_12" data-name="Path 12" d="M13.583,0c-3.689,0-4.152.016-5.6.082a9.963,9.963,0,0,0-3.3.631A6.649,6.649,0,0,0,2.281,2.279,6.661,6.661,0,0,0,.713,4.685a9.911,9.911,0,0,0-.631,3.3C.017,9.43,0,9.893,0,13.582s.016,4.15.082,5.6a9.988,9.988,0,0,0,.631,3.3A6.648,6.648,0,0,0,2.28,24.883a6.639,6.639,0,0,0,2.4,1.568,9.953,9.953,0,0,0,3.3.631c1.449.066,1.911.082,5.6.082s4.15-.016,5.6-.082a9.962,9.962,0,0,0,3.3-.631,6.96,6.96,0,0,0,3.972-3.973,10.074,10.074,0,0,0,.631-3.3c.065-1.449.082-1.911.082-5.6s-.017-4.151-.082-5.6a10.067,10.067,0,0,0-.631-3.3,6.67,6.67,0,0,0-1.568-2.406A6.641,6.641,0,0,0,22.478.713a9.992,9.992,0,0,0-3.3-.631C17.73.016,17.269,0,13.579,0ZM12.365,2.448h1.219c3.627,0,4.056.013,5.488.079a7.5,7.5,0,0,1,2.522.468,4.2,4.2,0,0,1,1.561,1.015,4.222,4.222,0,0,1,1.017,1.562,7.516,7.516,0,0,1,.467,2.521c.065,1.432.08,1.862.08,5.487s-.015,4.055-.08,5.486a7.512,7.512,0,0,1-.467,2.521,4.506,4.506,0,0,1-2.578,2.576,7.482,7.482,0,0,1-2.522.468c-1.432.065-1.862.079-5.488.079s-4.057-.014-5.488-.079a7.546,7.546,0,0,1-2.522-.468,4.218,4.218,0,0,1-1.562-1.016,4.209,4.209,0,0,1-1.017-1.561,7.533,7.533,0,0,1-.468-2.522c-.065-1.432-.078-1.862-.078-5.489s.013-4.055.078-5.486a7.533,7.533,0,0,1,.468-2.522A4.206,4.206,0,0,1,4.011,4.005,4.218,4.218,0,0,1,5.573,2.989a7.5,7.5,0,0,1,2.522-.468c1.253-.057,1.738-.074,4.27-.077ZM20.833,4.7a1.63,1.63,0,1,0,1.63,1.629A1.629,1.629,0,0,0,20.833,4.7Zm-7.25,1.9a6.974,6.974,0,1,0,6.974,6.975,6.975,6.975,0,0,0-6.974-6.975Zm0,2.448a4.527,4.527,0,1,1-4.527,4.527,4.527,4.527,0,0,1,4.527-4.527" transform="translate(0 0)" fill="#959595"/>
      </g>
    </g>
  </g>
</svg>
