<svg xmlns="http://www.w3.org/2000/svg"  viewBox="0 0 65 65">
  <g id="Group_2472" data-name="Group 2472" transform="translate(-1610 -1106)">
    <circle id="Ellipse_2" data-name="Ellipse 2" cx="32.5" cy="32.5" r="32.5" transform="translate(1610 1106)" fill="#ebebeb"/>
    <g id="telegram" transform="translate(1627 1126)">
      <path id="Path_13" data-name="Path 13" d="M13.8,31.452,31.3,24.27c1.721-.748,7.556-3.142,7.556-3.142s2.693-1.047,2.469,1.5c-.075,1.047-.673,4.713-1.272,8.678l-1.87,11.821s-.15,1.721-1.421,2.02S33.4,44.1,33.023,43.8c-.3-.224-5.611-3.591-7.556-5.237a1.418,1.418,0,0,1,.075-2.394c2.693-2.469,5.91-5.536,7.856-7.481.9-.9,1.8-2.993-1.945-.449L20.829,35.343a4.4,4.4,0,0,1-3.441.075c-2.244-.673-4.863-1.571-4.863-1.571s-1.8-1.2,1.272-2.394Z" transform="translate(-12.002 -20.914)" fill="#959595"/>
    </g>
  </g>
</svg>
