<svg xmlns="http://www.w3.org/2000/svg"  viewBox="0 0 16.073 13.394">
  <path id="Icon" d="M16.073,1.585a6.419,6.419,0,0,1-1.894.532,3.38,3.38,0,0,0,1.45-1.87,6.505,6.505,0,0,1-2.094.82A3.259,3.259,0,0,0,11.127,0a3.339,3.339,0,0,0-3.3,3.381,3.474,3.474,0,0,0,.085.771A9.289,9.289,0,0,1,1.118.619a3.444,3.444,0,0,0,1.02,4.515A3.226,3.226,0,0,1,.646,4.711c0,.014,0,.029,0,.042A3.363,3.363,0,0,0,3.29,8.069,3.233,3.233,0,0,1,1.8,8.127a3.313,3.313,0,0,0,3.08,2.348A6.519,6.519,0,0,1,0,11.876a9.173,9.173,0,0,0,5.055,1.518,9.447,9.447,0,0,0,9.382-9.62c0-.146,0-.293-.01-.438A6.786,6.786,0,0,0,16.073,1.585Z" fill="#fff"/>
</svg>
